<?xml  version="1.0" encoding="UTF-8"?>
<!DOCTYPE svg PUBLIC "-//W3C//DTD SVG 1.0//EN" "http://www.w3.org/TR/2001/REC-SVG-20010904/DTD/svg10.dtd" >
<svg xmlns="http://www.w3.org/2000/svg" >
<metadata>
<version>1.0</version>
<id><![CDATA[Foco W01 Black]]></id>
<vendor>Monotype Imaging Inc.</vendor>
<credits>
<name>Fonts.com WebFonts</name>
<URL>http://webfonts.fonts.com</URL>
<role>Home of the Web fonts</role>
</credits>
<license>
<URL>http://webfonts.fonts.com/Legal</URL>
</license>
<copyright><![CDATA[Copyright 2011 Dalton Maag Ltd. Modification of this file requires prior written permission from Dalton Maag Ltd.]]></copyright>
<trademark><![CDATA[Dalton Maag, DaMa and Foco are registered trademarks of Dalton Maag Ltd.]]></trademark>
<licensee>
<name></name>
</licensee>
</metadata>
<defs >
<font horiz-adv-x="540" id="6552ae33-417e-44d9-91b3-9a85f0b2faba">
<font-face font-family="" panose-1="2 11 10 4 5 2 2 2 2 3" ascent="928" descent="-253" units-per-em="1000" alphabetic="0">
</font-face>
<missing-glyph horiz-adv-x="0" />

<glyph unicode="&#xA;" horiz-adv-x="0" />
<glyph unicode="&#xD;" horiz-adv-x="0" />
<glyph unicode=" " horiz-adv-x="200" />
<glyph unicode="!" horiz-adv-x="321" d="M256 77Q256 35 231 10T160 -15Q115 -15 90 10T64 77Q64 119 89 143T160 168Q203 168 229 144T256 77ZM55 664Q85 669 101 670T131 671Q155 671 177 667T217 651T244 619T255 566V220Q255 219 240 213T192 207Q146 207 119 219T78 252T59 297T55 348V664Z"  />
<glyph unicode="&quot;" horiz-adv-x="401" d="M240 677Q260 682 272 683T298 684Q335 684 351 663T368 606L358 406H240V677ZM40 677Q60 682 72 683T98 684Q135 684 151 663T168 606L158 406H40V677Z"  />
<glyph unicode="#" horiz-adv-x="654" d="M474 173L454 24H323L344 173H261L240 24H109L131 173H16L30 270H144L158 368H44L58 466H171L192 608H322L301 466H385L406 608H536L514 466H639L625 368H502L487 270H611L598 173H474ZM372 368H288L273 270H357L372 368Z"  />
<glyph unicode="$" horiz-adv-x="590" d="M102 198Q137 172 177 154T262 136Q295 136 311 146T327 183Q327 199 320 209T299 227T269 241T231 255Q201 265 170 279T113 316T71 375T55 464Q55 504 66 536T98 592T146 632T206 658V759H267V664L310 666V759H371V664Q409 657 435 646T476 625Q495 612 505 598T515 564Q515 544 504 523T468 466Q451 479 432 488T393 505T355 515T323 519Q257 519 257 480Q257 459 276 447T331 422Q363 411 397 398T459 363T505 307T523 221Q523 128 482 74T371 -1V-94H310V-9L267 -11V-94H206V-10Q164 -5 134 5T84 29Q49 52 49 90Q49 114 65 143T102 198Z"  />
<glyph unicode="%" horiz-adv-x="821" d="M361 510Q361 425 314 378T189 331Q108 331 63 378T17 510Q17 552 30 585T66 640T120 674T189 686Q268 686 314 641T361 510ZM226 511Q226 546 219 565T189 585Q167 585 160 566T153 510Q153 473 160 452T189 430Q212 430 219 451T226 511ZM796 161Q796 76 749 29T624 -18Q543 -18 498 29T452 161Q452 203 465 236T501 291T555 325T624 337Q703 337 749 292T796 161ZM661 162Q661 197 654 216T624 236Q602 236 595 217T588 161Q588 124 595 103T624 81Q647 81 654 102T661 162ZM301 0H152L476 600Q486 619 495 634T518 661T549 679T596 685Q615 685 632 683T663 673L301 0Z"  />
<glyph unicode="&amp;" horiz-adv-x="808" d="M752 22Q714 3 683 -5T620 -13Q575 -13 548 4T504 41Q468 17 416 0T296 -18Q229 -18 182 -1T104 45T59 113T45 196Q45 245 60 282T99 346T152 391T208 420Q195 440 186 462T176 519Q176 556 192 586T238 637T307 669T395 681Q449 681 483 673T543 650Q572 634 578 617T585 585Q585 571 571 543T538 488Q496 514 473 522T435 530Q414 530 403 521T391 497Q391 485 397 472T412 447L528 292Q541 320 547 354T557 430H778V313H697Q690 268 674 231T635 164L752 22ZM313 129Q340 129 361 136T401 157L290 298Q271 289 253 266T234 208Q234 174 255 152T313 129Z"  />
<glyph unicode="&apos;" horiz-adv-x="201" d="M40 677Q60 682 72 683T98 684Q135 684 151 663T168 606L158 406H40V677Z"  />
<glyph unicode="(" horiz-adv-x="372" d="M40 308Q40 359 47 409T69 504T105 589T153 658Q178 684 210 700T281 717Q301 717 323 712T362 700Q343 668 324 632T288 548T261 442T250 306Q250 215 269 140T311 11Q324 -21 339 -49T372 -103Q346 -116 326 -120T277 -124Q235 -124 209 -111T167 -81Q149 -64 127 -31T86 51T53 164T40 308Z"  />
<glyph unicode=")" horiz-adv-x="372" d="M332 308Q332 228 319 164T287 51T245 -31T205 -81Q189 -97 163 -110T95 -124Q67 -124 47 -120T0 -103Q33 -54 61 11Q84 65 103 140T122 306Q122 382 112 441T85 548T49 631T10 700Q26 707 48 712T91 717Q130 717 162 701T219 658Q246 629 267 590T302 505T324 409T332 308Z"  />
<glyph unicode="*" horiz-adv-x="402" d="M92 613Q95 611 101 606T113 596L144 568Q162 553 162 538Q162 534 157 522Q148 506 129 506Q120 506 110 509L65 523Q59 525 53 527T45 532Q37 537 31 544T25 563Q25 577 35 593Q43 607 52 613T71 619Q81 619 92 613ZM110 483Q119 487 133 487Q143 487 152 477T161 454Q161 438 144 424L110 392Q99 382 92 378T72 373Q63 373 53 379T34 401Q25 417 25 429Q25 448 39 456T70 470L110 483ZM154 343Q154 347 155 355T158 370L167 411Q170 425 177 435T200 445Q217 445 224 435T235 411L246 365Q247 358 247 352T248 343Q248 328 239 316T200 304Q174 304 164 315T154 343ZM310 379Q307 381 301 386T289 396L258 424Q240 439 240 454Q240 458 245 470Q254 486 273 486Q281 486 292 483L337 469Q343 467 349 465T357 460Q365 455 371 448T377 429Q377 415 367 399Q359 385 350 379T331 373Q320 373 310 379ZM357 532Q354 530 346 527T332 522L292 509Q283 505 271 505Q253 505 246 521Q241 533 241 538Q241 554 258 568L292 600Q297 605 302 608T310 613Q319 619 330 619Q339 619 349 613T368 591Q377 574 377 563Q377 543 357 532ZM248 649Q248 645 247 637T244 623L235 581Q232 567 225 557T202 547Q185 547 178 557T167 582L157 627Q155 634 155 640T154 649Q154 664 163 676T202 688Q228 688 238 677T248 649Z"  />
<glyph unicode="+" horiz-adv-x="600" d="M384 252V74H215V252H53V412H215V593H384V412H547V252H384Z"  />
<glyph unicode="&#x2c;" horiz-adv-x="285" d="M230 57Q230 15 218 -23T178 -92Q159 -114 136 -128T91 -142Q69 -142 53 -130T30 -97Q41 -93 53 -86T75 -70T92 -49T99 -22Q99 -6 91 5T73 26T55 51T46 88Q46 101 51 115T67 142T95 162T135 170Q160 170 178 160T207 135T224 99T230 57Z"  />
<glyph unicode="-" horiz-adv-x="441" d="M146 212Q94 212 71 238T48 303Q48 335 51 367H286Q334 367 363 349T392 281Q392 265 392 247T390 212H146Z"  />
<glyph unicode="." horiz-adv-x="300" d="M245 79Q245 37 220 11T150 -15Q105 -15 80 11T55 79Q55 121 81 146T150 171Q192 171 218 146T245 79Z"  />
<glyph unicode="/" horiz-adv-x="428" d="M181 0H0L213 580Q220 600 229 617T252 648T288 668T341 676Q360 676 381 674T425 664L181 0Z"  />
<glyph unicode="0" horiz-adv-x="590" d="M562 328Q562 163 498 74T296 -15Q157 -15 92 70T27 328Q27 407 43 470T92 578T176 647T299 671Q369 671 419 648T501 581T547 473T562 328ZM359 328Q359 381 356 417T345 476T325 508T297 518Q279 518 267 509T248 477T237 418T234 328Q234 223 248 181T297 138Q313 138 325 147T344 179T355 238T359 328Z"  />
<glyph unicode="1" horiz-adv-x="590" d="M248 0V433L132 377Q113 406 97 436T80 493Q80 519 90 532T131 562L280 640Q301 651 321 658T368 665Q396 665 415 659T445 645V0H248Z"  />
<glyph unicode="2" horiz-adv-x="590" d="M50 0V133Q70 148 93 168T142 212T193 260T243 311Q277 347 296 378T315 446Q315 485 292 500T241 515Q201 515 164 496T96 452Q69 483 51 510T33 558Q33 574 41 586T65 609Q79 619 99 630T145 650T205 665T279 671Q327 671 370 661T445 626T497 564T516 470Q516 434 506 401T479 336T438 276T389 221Q371 203 353 186T316 152H431Q483 152 510 130T538 60Q538 46 538 32T536 0H50Z"  />
<glyph unicode="3" horiz-adv-x="590" d="M513 199Q513 151 497 112T449 45T368 1T252 -15Q179 -15 137 -2T67 26Q46 37 34 54T22 89Q22 109 32 134T72 205Q101 179 143 158T236 137Q270 137 290 154T311 206Q311 228 304 241T285 261T261 270T234 273H163V411H233Q257 411 276 426T296 469Q296 497 278 509T231 521Q193 521 158 506T78 459Q51 490 36 514T20 560Q20 579 30 592T55 615Q84 635 136 653T265 671Q326 671 370 658T443 622T485 568T499 501Q499 441 473 406T409 350Q454 332 483 296T513 199Z"  />
<glyph unicode="4" horiz-adv-x="590" d="M32 143V265L245 587Q257 605 269 619T299 643T339 659T394 665Q423 665 449 658T487 641V269H516Q548 269 560 259T573 223Q573 209 572 192T566 143H487V0H293V143H32ZM293 275V451H287L169 275H293Z"  />
<glyph unicode="5" horiz-adv-x="590" d="M110 663H510Q512 643 513 629T514 598Q514 581 509 565T492 535T460 513T408 504H256L246 428Q266 432 285 434T322 436Q419 436 476 385T533 231Q533 182 518 138T472 59T391 5T272 -15Q228 -15 195 -10T137 3T96 19T71 33Q56 42 45 56T33 88Q33 106 46 137T87 211Q101 200 120 188T160 165T206 148T254 141Q288 141 309 160T331 223Q331 246 323 260T304 283T278 293T252 296Q220 296 196 290T145 269L71 299L110 663Z"  />
<glyph unicode="6" horiz-adv-x="590" d="M552 241Q552 176 533 128T480 48T401 1T303 -15Q238 -15 189 6T106 65T56 159T39 283Q39 386 69 459T147 578T255 645T375 667Q409 667 431 662T466 647T483 622T488 588Q488 573 486 553T481 517Q461 521 448 522T418 523Q395 523 372 519T327 503T288 474T258 427Q280 441 308 446T360 452Q408 452 444 435T504 389T540 321T552 241ZM349 231Q349 280 333 302T288 324Q281 324 268 323T246 320Q244 305 243 290T242 257Q242 236 244 215T253 177T271 150T302 139Q322 139 335 161T349 231Z"  />
<glyph unicode="7" horiz-adv-x="590" d="M288 0H77L337 493H58Q54 512 52 532T49 577Q49 616 77 639T162 663H497Q540 663 552 650T565 601V539L288 0Z"  />
<glyph unicode="8" horiz-adv-x="590" d="M554 194Q554 138 536 99T483 34T401 -3T295 -15Q167 -15 101 33T35 181Q35 214 44 241T68 288T102 323T141 346Q101 366 79 400T56 486Q56 531 73 565T122 623T198 659T295 671Q348 671 392 660T467 626T516 568T533 487Q533 433 510 400T448 348Q493 331 523 291T554 194ZM355 198Q355 268 295 268Q266 268 250 250T233 198Q233 161 250 144T295 127Q321 127 338 144T355 198ZM342 473Q342 515 328 530T295 545Q277 545 263 530T248 477Q248 442 261 425T295 407Q315 407 328 422T342 473Z"  />
<glyph unicode="9" horiz-adv-x="590" d="M41 415Q41 480 60 528T113 608T192 655T290 671Q355 671 404 650T487 590T536 495T553 369Q553 266 524 193T447 74T339 7T218 -15Q183 -15 162 -10T127 5T110 29T105 64Q105 79 107 99T112 135Q132 131 145 130T175 129Q198 129 221 133T266 149T305 178T335 225Q313 211 285 206T233 200Q185 200 149 218T89 265T53 334T41 415ZM244 421Q244 372 260 350T305 327Q326 327 346 332Q348 347 349 362T350 395Q350 419 348 441T338 480T320 507T291 517Q271 517 258 493T244 421Z"  />
<glyph unicode=":" horiz-adv-x="300" d="M245 79Q245 37 220 11T150 -15Q105 -15 80 11T55 79Q55 121 81 146T150 171Q192 171 218 146T245 79ZM245 387Q245 345 220 319T150 293Q105 293 80 319T55 387Q55 429 81 454T150 479Q192 479 218 454T245 387Z"  />
<glyph unicode=";" horiz-adv-x="295" d="M230 57Q230 15 218 -23T178 -92Q159 -114 136 -128T91 -142Q69 -142 53 -130T30 -97Q41 -93 53 -86T75 -70T92 -49T99 -22Q99 -6 91 5T73 26T55 51T46 88Q46 101 51 115T67 142T95 162T135 170Q160 170 178 160T207 135T224 99T230 57ZM242 387Q242 345 217 319T147 293Q102 293 77 319T52 387Q52 429 78 454T147 479Q189 479 215 454T242 387Z"  />
<glyph unicode="&lt;" horiz-adv-x="600" d="M547 58L53 242V401L547 577V414L285 324L547 228V58Z"  />
<glyph unicode="=" horiz-adv-x="600" d="M53 366V526H547V366H53ZM53 127V287H547V127H53Z"  />
<glyph unicode="&gt;" horiz-adv-x="600" d="M53 228L315 324L53 414V577L547 401V242L53 58V228Z"  />
<glyph unicode="?" horiz-adv-x="487" d="M228 681Q274 681 315 670T386 638T434 585T452 511Q452 478 444 453T423 409T392 374T358 344Q331 322 312 301T292 245Q292 223 296 203Q287 201 276 200T254 199Q232 199 209 203T168 218T137 247T125 291Q125 331 146 357T196 409Q216 428 231 446T246 488Q246 514 230 523T189 532Q166 532 135 520T72 484Q45 515 33 537T20 575Q20 591 26 604T52 633Q72 648 114 664T228 681ZM314 77Q314 35 289 10T218 -15Q173 -15 148 10T122 77Q122 119 147 143T218 168Q261 168 287 144T314 77Z"  />
<glyph unicode="@" horiz-adv-x="799" d="M516 78Q503 75 485 74T452 72Q407 72 379 92T350 155V201Q328 201 305 197T262 182T230 152T217 101Q217 86 223 68T246 33T292 5T367 -7Q499 -7 558 64T617 271Q617 335 597 383T541 464T452 512T334 529Q291 529 252 521T179 499T116 470T66 437Q45 457 33 475T20 511Q20 528 27 539T45 558Q52 563 73 576T130 604T219 630T342 641Q445 641 521 612T647 533T722 416T747 272Q747 185 720 112T643 -13T519 -95T353 -124Q278 -124 223 -108T132 -62T77 9T59 99Q59 142 74 174T113 228T169 263T232 285T294 295T347 298Q347 333 329 347T281 361Q219 361 148 321Q112 357 112 383Q112 397 121 409T151 433Q177 446 216 456T313 467Q404 467 455 427T506 301V207Q506 174 508 138T516 78Z"  />
<glyph unicode="A" horiz-adv-x="670" d="M470 0L415 158H249L198 0H0L215 655Q234 663 266 669T336 676Q352 676 372 674T411 663T446 636T474 587L670 0H470ZM353 412Q348 433 342 462T334 512H331Q329 491 323 461T312 413L277 286H386L353 412Z"  />
<glyph unicode="B" horiz-adv-x="601" d="M576 202Q576 142 555 103T494 41T401 9T283 0H55V663Q118 670 169 673T257 676Q339 676 395 663T485 627T533 571T548 497Q548 446 524 410T458 357Q480 350 501 338T539 307T566 262T576 202ZM288 139Q327 139 349 157T372 213Q372 245 355 263T293 282H256V139H288ZM344 483Q344 509 329 525T281 542Q275 542 270 542T256 540V409H282Q315 409 329 432T344 483Z"  />
<glyph unicode="C" horiz-adv-x="596" d="M545 36Q539 30 526 21T491 3T438 -12T364 -18Q280 -18 218 7T114 79T53 190T33 331Q33 407 52 471T112 583T214 657T360 684Q399 684 430 678T485 663T526 644T553 625Q564 615 576 600T588 565Q588 545 570 519T522 464Q487 496 457 512T385 528Q344 528 316 511T271 467T246 406T238 338Q238 300 245 264T270 200T315 155T385 138Q425 138 454 151T515 194Q523 185 533 173T552 147T567 119T573 91Q573 61 545 36Z"  />
<glyph unicode="D" horiz-adv-x="656" d="M621 350Q621 279 603 216T545 104T444 28T296 0H55V662Q133 672 183 674T266 676Q371 676 439 650T548 580T605 476T621 350ZM417 348Q417 384 411 416T390 472T349 511T282 525Q276 525 270 525T257 524V151H281Q325 151 352 169T393 217T412 281T417 348Z"  />
<glyph unicode="E" horiz-adv-x="553" d="M417 152Q451 152 473 144T507 121T523 90T528 56Q528 39 528 28T526 0H55V671H511Q513 651 514 640T515 611Q515 594 510 578T493 548T460 526T407 517H257V416H450V263H257V152H417Z"  />
<glyph unicode="F" horiz-adv-x="533" d="M256 416H453V263H256V0H55V671H515Q517 651 518 639T519 610Q519 593 514 577T497 547T463 526T410 517H256V416Z"  />
<glyph unicode="G" horiz-adv-x="663" d="M392 133Q412 133 429 136V362H517Q554 362 574 354T604 332T616 302T618 269V46Q608 37 589 26T539 6T467 -11T371 -18Q285 -18 222 8T116 80T54 191T33 331Q33 405 54 469T118 581T225 656T375 684Q413 684 445 679T502 665T546 646T576 628Q590 617 599 603T609 569Q609 547 591 520T544 465Q510 495 475 511T392 528Q348 528 319 511T271 467T246 406T238 335Q238 296 245 260T271 195T318 150T392 133Z"  />
<glyph unicode="H" horiz-adv-x="675" d="M256 417H419V669Q445 674 465 675T496 676Q515 676 537 673T577 659T608 628T620 576V0H419V261H256V0H55V669Q81 674 101 675T132 676Q152 676 174 673T214 659T244 628T256 576V417Z"  />
<glyph unicode="I" horiz-adv-x="311" d="M256 0H55V669Q81 674 101 675T132 676Q152 676 174 673T214 659T244 628T256 576V0Z"  />
<glyph unicode="J" horiz-adv-x="312" d="M55 669Q81 674 101 675T132 676Q152 676 174 673T214 659T245 628T257 576V66Q257 52 256 26T253 -20Q250 -59 233 -96T187 -163T118 -209T28 -227Q-16 -227 -36 -210T-64 -152Q-67 -138 -68 -123T-69 -90Q-9 -87 23 -62T55 23V669Z"  />
<glyph unicode="K" horiz-adv-x="662" d="M256 0H55V669Q81 674 101 675T132 676Q152 676 174 673T214 659T244 628T256 576V0ZM311 193Q297 215 287 233T270 268T260 304T257 344Q257 382 273 417T315 490L390 599Q402 616 414 630T440 654T473 670T514 676Q536 676 558 668T599 651Q622 640 640 627L456 350L659 18Q621 -1 587 -7T516 -13Q471 -13 443 7T398 55L311 193Z"  />
<glyph unicode="L" horiz-adv-x="531" d="M55 669Q81 674 102 675T133 676Q153 676 175 673T215 659T245 628T257 576V160H403Q437 160 458 152T491 129T507 98T511 65Q511 51 510 36T508 0H55V669Z"  />
<glyph unicode="M" horiz-adv-x="816" d="M189 676Q237 676 259 661T294 614L407 304H411L521 606Q536 648 562 662T630 676Q661 676 689 673T731 664L778 0H587L567 336H563L473 123H339L255 329H251L230 0H38L86 664Q99 668 128 672T189 676Z"  />
<glyph unicode="N" horiz-adv-x="676" d="M425 312V669Q448 674 467 675T497 676Q517 676 539 673T579 659T609 629T621 577V0H459L250 332V0H55V669Q69 671 93 673T143 676Q191 676 215 661T256 616L425 312Z"  />
<glyph unicode="O" horiz-adv-x="708" d="M673 336Q673 262 655 198T597 85T497 10T350 -18Q265 -18 205 9T107 84T51 196T33 335Q33 406 52 469T112 580T213 656T358 684Q440 684 500 658T598 585T654 475T673 336ZM468 335Q468 373 462 408T443 469T408 511T357 527Q325 527 303 512T266 470T246 408T239 335Q239 296 245 261T265 198T301 155T354 139Q385 139 407 155T442 198T462 260T468 335Z"  />
<glyph unicode="P" horiz-adv-x="582" d="M557 461Q557 395 536 348T477 271T389 226T281 212H257V0H55V665Q108 670 163 673T256 676Q412 676 484 622T557 461ZM353 453Q353 539 279 539Q274 539 268 539T256 538V349H273Q315 349 334 377T353 453Z"  />
<glyph unicode="Q" horiz-adv-x="708" d="M335 -95Q346 -77 367 -62T417 -46Q450 -46 471 -60T518 -93T577 -128T671 -147Q668 -164 663 -182T647 -217T615 -243T563 -253Q525 -253 489 -238T421 -200T368 -149T335 -95ZM673 336Q673 262 655 198T597 85T497 10T350 -18Q265 -18 205 9T107 84T51 196T33 335Q33 406 52 469T112 580T213 656T358 684Q440 684 500 658T598 585T654 475T673 336ZM468 335Q468 373 462 408T443 469T408 511T357 527Q325 527 303 512T266 470T246 408T239 335Q239 296 245 261T265 198T301 155T354 139Q385 139 407 155T442 198T462 260T468 335Z"  />
<glyph unicode="R" horiz-adv-x="614" d="M562 466Q562 426 553 394T529 337T496 295T459 267L606 15Q583 4 556 -4T491 -13Q441 -13 410 1T354 54L270 218H257V0H55V665Q108 671 163 673T256 676Q412 676 487 625T562 466ZM350 446Q350 491 332 515T281 539Q276 539 269 539T256 537V347H281Q319 347 334 375T350 446Z"  />
<glyph unicode="S" horiz-adv-x="538" d="M70 195Q108 169 149 151T239 133Q307 133 307 188Q307 203 299 214T278 235T246 251T206 265Q174 275 142 289T82 326T38 385T21 474Q21 528 42 567T99 633T181 671T278 684Q347 684 395 669T464 640Q484 627 494 613T505 579Q505 559 494 537T456 479Q438 492 417 501T376 518T336 528T303 532Q270 532 252 521T234 490Q234 469 254 457T311 432Q344 421 380 407T445 370T494 312T513 221Q513 161 494 116T439 41T355 -3T248 -18Q176 -18 127 -5T51 26Q33 37 24 53T15 87Q15 111 32 140T70 195Z"  />
<glyph unicode="T" horiz-adv-x="607" d="M204 508H12Q10 528 9 542T8 574Q8 590 14 607T33 639T68 662T122 671H594Q596 651 597 635T598 601Q598 584 593 568T576 538T542 517T489 508H406V0H204V508Z"  />
<glyph unicode="U" horiz-adv-x="654" d="M251 270Q251 225 259 196Q266 175 282 159T330 143Q354 143 371 154T397 195Q400 208 401 227T403 270V669Q429 674 449 675T480 676Q499 676 521 673T561 659T592 628T604 576V276Q604 256 603 234T600 189Q596 147 579 110T528 45T446 1T328 -15Q261 -15 213 -2T131 37T80 102T54 192Q52 211 51 235T50 276V669Q76 674 96 675T127 676Q147 676 169 673T209 659T239 628T251 576V270Z"  />
<glyph unicode="V" horiz-adv-x="656" d="M437 -5H214L0 661Q7 664 21 666T53 671T86 675T115 676Q218 676 237 591L325 210H332L424 585Q434 627 463 651T544 676Q570 676 597 672T656 660L437 -5Z"  />
<glyph unicode="W" horiz-adv-x="927" d="M713 -5H560L474 257H470L380 -5H232L0 655Q10 659 24 663T54 670T83 674T109 676Q161 676 188 656T226 598L323 270H327L390 465L338 662Q368 668 393 672T440 676Q492 676 517 655T552 595L628 270H633L705 594Q714 634 741 655T820 676Q856 676 881 671T927 658L713 -5Z"  />
<glyph unicode="X" horiz-adv-x="625" d="M309 164L225 0H0L188 330L26 641Q41 648 59 654T95 665T130 673T160 676Q202 676 230 658T275 596L317 484L364 597Q378 632 408 654T486 676Q515 676 548 668T612 642L439 334L620 10Q593 -1 561 -7T503 -13Q446 -13 415 7T365 62L309 164Z"  />
<glyph unicode="Y" horiz-adv-x="629" d="M414 231V0H212V226L0 643Q26 657 61 666T124 676Q172 676 197 658T237 605L315 418L392 607Q405 638 430 657T505 676Q531 676 564 669T629 651L414 231Z"  />
<glyph unicode="Z" horiz-adv-x="598" d="M28 0V132L313 517H27Q26 534 26 547T25 578Q25 594 30 611T48 641T82 662T136 671H484Q521 671 535 658T549 616V537L263 152H461Q495 152 517 144T551 122T568 91T573 58Q573 41 573 29T571 0H28Z"  />
<glyph unicode="[" horiz-adv-x="374" d="M55 -136V717H339V577H230V3H339V-136H55Z"  />
<glyph unicode="\" horiz-adv-x="428" d="M3 664Q26 671 47 673T87 676Q119 676 140 669T176 648T198 618T215 580L428 0H247L3 664Z"  />
<glyph unicode="]" horiz-adv-x="374" d="M35 -136V3H144V577H35V717H319V-136H35Z"  />
<glyph unicode="^" horiz-adv-x="578" d="M392 263L289 514L186 263H25L210 667H368L553 263H392Z"  />
<glyph unicode="_" horiz-adv-x="460" d="M0 -210V-100H460V-210H0Z"  />
<glyph unicode="`" horiz-adv-x="500" d="M120 682Q139 699 164 716T213 734Q239 734 255 720T284 689L370 574Q356 563 337 551T298 539Q281 539 267 544T239 563L120 682Z"  />
<glyph unicode="a" horiz-adv-x="524" d="M484 109Q484 84 488 55T499 3Q485 -1 474 -3T453 -7T431 -9T405 -10Q324 -10 311 36Q294 19 262 5T178 -9Q147 -9 119 -1T68 24T33 70T20 140Q20 198 50 232T124 285T214 308T294 313V327Q294 355 276 362T231 370Q196 370 162 361T86 331Q67 354 58 376T48 409Q48 424 58 437T99 466Q126 480 172 488T266 496Q383 496 433 450T484 304V109ZM297 224Q278 222 261 218T232 207T212 187T204 156Q204 133 216 121T251 108Q269 108 283 116T297 140V224Z"  />
<glyph unicode="b" horiz-adv-x="566" d="M240 473Q251 480 277 488T340 496Q376 496 412 486T476 449T523 376T541 260Q541 178 525 125T481 42T419 -1T347 -13Q315 -13 293 -6T256 10T234 27Q227 35 226 38Q226 22 220 11T194 0H40V702Q64 707 83 708T116 709Q140 709 162 705T202 689T229 657T240 604V473ZM332 261Q332 309 319 336T269 364Q257 364 250 363T240 360V145Q246 141 255 140T273 138Q290 138 301 147T319 173T329 212T332 261Z"  />
<glyph unicode="c" horiz-adv-x="465" d="M320 124Q348 124 371 135T416 164Q423 155 430 144T444 121T454 97T458 75Q458 58 451 44T420 16Q398 2 363 -6T283 -15Q242 -15 197 -5T113 34T50 113T25 243Q25 318 50 366T114 444T198 484T282 496Q317 496 351 489T412 467Q436 453 448 438T460 400Q460 382 448 357T419 306Q391 329 368 340T312 352Q272 352 250 324T227 247Q227 222 231 200T247 161T275 134T320 124Z"  />
<glyph unicode="d" horiz-adv-x="561" d="M371 0Q356 0 344 7T332 37Q318 19 288 5T211 -10Q177 -10 144 1T85 39T42 114T25 234Q25 306 40 356T82 437T142 482T213 496Q237 496 256 491T288 480T310 467T322 457V702Q346 707 365 708T397 709Q421 709 443 705T483 689T510 657T521 604V0H371ZM229 237Q229 213 232 193T242 157T262 132T292 123Q304 123 311 124T321 127V342Q315 346 306 347T288 349Q254 349 242 319T229 237Z"  />
<glyph unicode="e" horiz-adv-x="515" d="M327 125Q367 125 394 137T448 169Q461 149 474 123T487 77Q487 60 478 45T446 16Q424 3 387 -6T293 -15Q252 -15 205 -5T118 34T52 115T25 253Q25 316 46 362T102 438T181 482T271 496Q332 496 375 478T444 430T483 360T495 276Q495 271 495 263T495 245T494 228T492 216H225Q230 178 253 152T327 125ZM318 299Q318 341 307 356T269 371Q222 371 222 299H318Z"  />
<glyph unicode="f" horiz-adv-x="400" d="M397 535Q381 544 356 553T301 563Q275 563 257 550T239 507V483H387V334H239V0H40V493Q40 503 40 513T41 534T43 551Q56 632 111 674T266 717Q286 717 308 715T352 707Q388 698 414 680T440 628Q440 613 428 588T397 535Z"  />
<glyph unicode="g" horiz-adv-x="560" d="M520 46Q520 17 518 -11T508 -66Q487 -137 425 -182T255 -227Q194 -227 155 -219T91 -197Q65 -183 57 -166T49 -133Q49 -116 62 -88T94 -33Q117 -51 154 -68T234 -86Q282 -86 306 -64T331 18V44Q324 33 311 25T283 10T250 1T215 -2Q177 -2 143 10T82 51T41 124T25 237Q25 306 40 355T82 436T143 481T214 496Q240 496 259 490T293 476T316 458T332 441Q345 461 371 473T442 486Q456 486 475 485T520 478V46ZM228 241Q228 193 241 163T291 133Q301 133 309 134T320 137V342Q314 346 305 347T287 349Q253 349 241 321T228 241Z"  />
<glyph unicode="h" horiz-adv-x="555" d="M314 294Q314 316 309 329T282 342Q260 342 251 333T241 312V0H40V702Q64 707 83 708T116 709Q140 709 162 705T201 689T229 658T240 606V436Q252 456 282 476T367 496Q425 496 460 466T507 387Q510 376 511 362T513 333T514 304T515 280V4Q485 -9 441 -9Q395 -9 370 2T332 31T317 72T314 122V294Z"  />
<glyph unicode="i" horiz-adv-x="280" d="M240 4Q201 -9 167 -9Q121 -9 96 2T58 31T43 72T40 122V479Q70 484 86 485T116 486Q140 486 162 482T202 466T229 434T240 381V4ZM232 632Q232 589 204 564T134 539Q92 539 64 564T36 632Q36 675 64 700T134 726Q176 726 204 701T232 632Z"  />
<glyph unicode="j" horiz-adv-x="280" d="M40 479Q64 484 83 485T116 486Q140 486 162 482T202 466T229 434T240 381V27Q240 5 238 -27T229 -86Q218 -126 195 -153T143 -196T87 -220T36 -227Q-7 -227 -27 -211T-54 -162Q-57 -149 -58 -135T-62 -95Q-30 -92 -10 -83T21 -60T36 -28T40 13V479ZM232 632Q232 589 204 564T134 539Q92 539 64 564T36 632Q36 675 64 700T134 726Q176 726 204 701T232 632Z"  />
<glyph unicode="k" horiz-adv-x="597" d="M282 139Q265 162 255 182Q245 201 240 225V0H40V702Q64 707 83 708T116 709Q140 709 162 705T202 689T229 657T240 604V282Q251 328 284 368L338 437Q357 461 380 478T443 496Q466 496 488 490T527 475Q537 470 546 465T563 455L426 263L588 16Q522 -11 467 -11Q420 -11 393 6T346 50L282 139Z"  />
<glyph unicode="l" horiz-adv-x="280" d="M40 702Q64 707 83 708T116 709Q140 709 162 705T202 689T229 657T240 604V4Q201 -9 167 -9Q121 -9 96 2T58 31T43 72T40 122V702Z"  />
<glyph unicode="m" horiz-adv-x="818" d="M40 478Q57 482 75 484T118 486Q207 486 230 436Q242 457 272 476T357 496Q405 496 437 477T487 426Q500 452 535 474T625 496Q688 496 723 466T770 387Q773 376 774 362T776 333T777 304T778 280V4Q748 -9 704 -9Q658 -9 633 2T595 31T580 72T577 122V294Q577 316 572 329T545 342Q523 342 517 333T510 314V0H309V294Q309 316 304 329T277 342Q257 342 249 333T241 312V0H40V478Z"  />
<glyph unicode="n" horiz-adv-x="555" d="M40 478Q57 482 75 484T118 486Q163 486 191 473T230 436Q242 457 274 476T362 496Q425 496 460 466T507 387Q510 376 511 362T513 333T514 304T515 280V4Q485 -9 441 -9Q395 -9 370 2T332 31T317 72T314 122V294Q314 316 309 329T282 342Q260 342 251 333T241 312V0H40V478Z"  />
<glyph unicode="o" horiz-adv-x="560" d="M535 246Q535 195 521 148T477 64T398 7T279 -15Q210 -15 162 6T84 62T39 144T25 243Q25 295 41 341T89 422T170 476T283 496Q352 496 400 476T478 422T521 343T535 246ZM336 243Q336 288 324 318T281 348Q264 348 253 339T235 315T226 281T223 242Q223 220 225 200T235 165T252 140T280 131Q297 131 308 140T325 165T333 201T336 243Z"  />
<glyph unicode="p" horiz-adv-x="566" d="M230 438Q247 461 277 478T359 496Q390 496 422 485T481 446T524 372T541 256Q541 175 524 123T479 41T417 -1T347 -13Q321 -13 301 -8T267 5T246 19Q239 25 238 28V-218H40V478Q57 482 75 484T118 486Q209 486 230 438ZM332 257Q332 302 319 327T269 353Q257 353 250 352T240 349V147Q246 143 255 142T273 140Q307 140 319 172T332 257Z"  />
<glyph unicode="q" horiz-adv-x="560" d="M520 -218H322V31Q307 11 279 1T217 -10Q178 -10 143 2T82 42T41 117T25 233Q25 308 41 358T85 439T146 483T218 496Q242 496 262 490T296 474T320 455T334 438Q347 458 373 472T442 486Q457 486 476 485T520 478V-218ZM228 234Q228 186 241 156T291 126Q303 126 310 127T320 130V339Q314 343 305 344T287 346Q253 346 241 316T228 234Z"  />
<glyph unicode="r" horiz-adv-x="428" d="M40 478Q57 482 75 484T118 486Q207 486 230 436Q235 445 245 455T269 475T302 490T340 496Q355 496 369 493T396 484T415 466T423 439Q423 423 419 404T409 365T394 326T378 292Q357 309 338 317T295 326Q269 326 255 313T241 279V0H40V478Z"  />
<glyph unicode="s" horiz-adv-x="451" d="M225 496Q308 496 368 471Q395 460 412 445T430 408Q430 390 419 365T390 317Q360 340 327 354T260 369Q217 369 217 344Q217 328 233 320T273 305T325 292T377 269T417 228T433 160Q433 79 377 32T212 -15Q150 -15 116 -6T61 14Q35 27 25 42T15 75Q15 101 27 126T56 175Q68 164 83 155T117 137T154 125T191 120Q217 120 228 128T239 150Q239 165 223 174T182 190T129 206T76 230T36 271T19 338Q19 378 36 408T81 457T147 486T225 496Z"  />
<glyph unicode="t" horiz-adv-x="396" d="M49 85Q41 108 39 130T37 174V631Q61 636 80 637T113 638Q137 638 159 634T198 618T226 586T237 534V483H365V335H237V186Q237 158 249 147T282 136Q300 136 319 144T351 164Q367 135 377 112T387 68Q387 54 382 43T363 22Q341 6 304 -4T218 -15Q146 -15 106 12T49 85Z"  />
<glyph unicode="u" horiz-adv-x="555" d="M515 0H368Q342 0 334 11T325 51Q313 30 281 11T193 -9Q130 -9 95 21T48 100Q45 111 44 125T42 154T41 183T40 207V479Q65 484 84 485T117 486Q141 486 163 482T202 466T230 435T241 383V193Q241 171 247 158T276 145Q298 145 306 154T314 175V479Q339 484 358 485T391 486Q415 486 437 482T477 466T504 434T515 381V0Z"  />
<glyph unicode="v" horiz-adv-x="530" d="M363 -6H169L5 466Q30 474 59 480T115 486Q144 486 164 478T196 457T216 425T227 386L265 167H269L310 387Q317 429 341 457T418 486Q449 486 478 480T525 466L363 -6Z"  />
<glyph unicode="w" horiz-adv-x="770" d="M599 -6H454L399 151H390L320 -6H189L5 466Q32 475 62 480T113 486Q164 486 188 467T225 409L288 217H292L327 297L283 470Q312 479 333 482T378 486Q420 486 439 465T468 402L508 218H512L558 392Q571 440 593 463T658 486Q687 486 713 480T765 465L599 -6Z"  />
<glyph unicode="x" horiz-adv-x="535" d="M272 363L294 413Q308 445 336 465T407 486Q434 486 463 481T521 466L384 239L525 14Q493 1 465 -4T406 -10Q363 -10 338 5T298 49L266 110L206 0H10L167 236L18 465Q30 469 46 473T80 480T114 484T142 486Q188 486 212 465T249 415L272 363Z"  />
<glyph unicode="y" horiz-adv-x="542" d="M410 -13Q407 -23 403 -36T394 -62T383 -89T371 -111Q336 -174 285 -200T162 -227Q111 -227 77 -212T43 -152Q43 -135 51 -112T78 -55Q95 -66 114 -70T147 -75Q183 -75 203 -58T232 8H153L5 469Q27 477 55 481T110 486Q140 486 161 478T196 455T217 423T229 385L273 165H277L321 386Q329 426 356 456T436 486Q489 486 537 467L410 -13Z"  />
<glyph unicode="z" horiz-adv-x="493" d="M23 0V130L217 332H29Q27 349 27 361T26 391Q26 418 36 436T64 464T102 479T147 483H386Q424 483 444 468T465 413V368L258 153H350Q376 153 398 150T437 136T463 107T472 58Q472 41 472 29T469 0H23Z"  />
<glyph unicode="{" horiz-adv-x="411" d="M284 418Q284 326 208 292Q284 258 284 169V53Q284 26 300 11T343 -4Q351 -4 359 -3T376 1Q381 -24 383 -44T386 -74Q386 -95 378 -108T357 -128T326 -137T291 -140Q236 -140 198 -124T136 -81T102 -23T91 42V172Q91 205 76 218T30 232V355Q61 355 76 368T91 415V535Q91 567 101 599T136 658T198 700T291 717Q309 717 326 715T356 705T378 685T386 651Q386 642 384 622T376 576Q367 579 359 580T343 581Q317 581 301 566T284 524V418Z"  />
<glyph unicode="|" horiz-adv-x="257" d="M50 -188V794H207V-188H50Z"  />
<glyph unicode="}" horiz-adv-x="411" d="M127 524Q127 551 111 566T68 581Q60 581 52 580T35 576Q30 601 28 621T25 651Q25 672 33 685T54 705T85 714T120 717Q175 717 213 701T275 658T309 600T320 535V415Q320 382 335 369T381 355V232Q350 232 335 219T320 172V42Q320 10 310 -22T275 -81T213 -123T120 -140Q102 -140 85 -138T55 -128T33 -108T25 -74Q25 -65 27 -45T35 1Q44 -2 52 -3T68 -4Q94 -4 110 11T127 53V169Q127 258 203 292Q127 326 127 418V524Z"  />
<glyph unicode="~" horiz-adv-x="518" d="M498 652Q494 558 458 501T356 444Q323 444 300 455T258 479T223 503T186 514Q166 514 157 497T145 444H20Q21 487 30 525T58 592T104 636T168 653Q201 653 225 642T267 619T300 595T331 584Q367 584 373 652H498Z"  />
<glyph unicode="&#xA0;" horiz-adv-x="200" />
<glyph unicode="&#xA1;" horiz-adv-x="316" d="M60 383Q60 425 85 450T156 475Q201 475 226 450T252 383Q252 341 227 317T156 292Q113 292 87 316T60 383ZM61 240Q61 241 76 247T124 253Q170 253 197 241T238 208T256 163T261 112V-204Q238 -209 219 -210T185 -211Q161 -211 139 -207T99 -191T72 -159T61 -106V240Z"  />
<glyph unicode="&#xA2;" horiz-adv-x="590" d="M381 213Q409 213 432 224T477 253Q484 244 491 233T505 210T515 186T519 164Q519 147 512 133T481 105Q451 87 410 79V-18H349V77L306 80V-18H245V88Q213 97 185 115T134 162T99 233T86 332Q86 385 99 424T135 492T185 539T245 569V671H306V579Q317 581 327 581T349 582V671H410V578Q426 575 441 570T473 556Q497 542 509 527T521 489Q521 471 509 446T480 395Q452 418 429 429T373 441Q333 441 311 413T288 336Q288 311 292 289T308 250T336 223T381 213Z"  />
<glyph unicode="&#xA3;" horiz-adv-x="590" d="M109 0V259H47V391H109V456Q109 515 128 556T180 622T256 659T347 671Q419 671 462 656T525 627Q542 615 549 603T557 572Q557 536 508 475Q472 498 444 508T386 518Q356 518 333 502T309 447V391H486V259H309V152H461Q493 152 514 145T548 124T566 91T572 50Q572 39 572 28T570 0H109Z"  />
<glyph unicode="&#xA4;" horiz-adv-x="526" d="M500 77L405 166Q376 150 344 143T279 136Q248 136 218 143T159 165L64 76L-22 159L74 249Q43 304 43 368Q43 430 71 482L-16 562L74 643L152 570Q181 587 214 595T281 603Q316 603 349 595T413 569L500 651L590 570L494 482Q508 456 514 428T520 371Q520 303 489 251L586 160L500 77ZM401 369Q401 395 393 418T368 458T330 484T281 494Q254 494 232 485T195 458T171 419T162 369Q162 343 170 321T195 281T232 255T281 245Q308 245 330 254T368 281T392 320T401 369Z"  />
<glyph unicode="&#xA5;" horiz-adv-x="590" d="M72 331H148L5 629Q31 643 65 652T127 662Q175 662 203 641T242 585L300 409L357 585Q367 617 395 639T473 662Q499 662 530 655T594 637L442 331H529V274H399V209H529V152H399V0H197V152H72V209H197V274H72V331Z"  />
<glyph unicode="&#xA6;" horiz-adv-x="257" d="M50 -188V215H207V-188H50ZM207 419H50V794H207V419Z"  />
<glyph unicode="&#xA7;" horiz-adv-x="521" d="M410 409Q441 400 453 379T466 333Q466 315 461 297T447 264L212 331Q135 353 93 393T50 508Q50 553 68 586T117 641T185 673T263 684Q326 684 365 674T430 648Q450 635 456 624T462 598Q462 589 458 578T448 553T435 528T420 505Q388 528 355 540T292 552Q282 552 271 550T251 543T235 528T229 505Q229 485 240 471T287 446L410 409ZM106 171Q75 180 63 201T50 247Q50 265 55 283T69 316L304 249Q381 227 423 187T466 72Q466 27 448 -6T399 -61T331 -93T253 -104Q190 -104 151 -94T86 -68Q66 -55 60 -44T54 -18Q54 -9 58 2T68 27T81 52T96 75Q128 52 161 40T224 28Q234 28 245 30T265 37T281 52T287 75Q287 95 276 109T229 134L106 171Z"  />
<glyph unicode="&#xA8;" horiz-adv-x="500" d="M451 629Q451 592 427 571T367 549Q332 549 308 570T283 629Q283 665 307 687T367 709Q402 709 426 687T451 629ZM217 629Q217 592 193 571T133 549Q98 549 74 570T49 629Q49 665 73 687T133 709Q168 709 192 687T217 629Z"  />
<glyph unicode="&#xA9;" horiz-adv-x="814" d="M764 317Q764 242 739 175T667 56T554 -25T406 -55Q320 -55 254 -26T143 53T74 171T50 317Q50 392 75 459T147 578T260 659T407 689Q488 689 554 659T666 578T738 460T764 317ZM701 317Q701 377 680 433T621 533T529 602T408 628Q341 628 287 602T195 533T136 434T115 317Q115 257 134 201T191 101T282 31T408 5Q475 5 529 31T621 100T680 200T701 317ZM551 122Q547 118 538 112T514 100T478 90T429 85Q372 85 329 102T256 151T211 225T196 320Q196 371 210 414T254 489T326 539T426 557Q480 557 511 543T556 517Q564 510 572 500T580 477Q580 463 568 442T535 401Q512 422 491 433T443 444Q416 444 398 434T369 408T353 369T348 324Q348 301 352 279T368 239T397 211T443 200Q470 200 489 209T530 238Q536 232 542 223T555 202T565 179T569 159Q569 140 551 122Z"  />
<glyph unicode="&#xAA;" horiz-adv-x="456" d="M409 400Q409 380 412 356T421 315Q399 309 381 307T340 305Q275 305 265 341Q251 327 225 316T158 305Q132 305 108 311T66 332T36 369T25 425Q25 471 49 498T109 540T182 559T249 563V568Q249 591 235 598T201 605Q173 605 146 598T85 573Q70 591 62 611T54 640Q54 652 62 662T95 685Q117 696 153 702T224 709Q323 709 366 671T409 551V400ZM252 490Q223 487 203 477T183 437Q183 401 217 401Q231 401 241 407T252 426V490Z"  />
<glyph unicode="&#xAB;" horiz-adv-x="599" d="M487 282L535 217Q547 200 553 184T559 148Q559 125 550 103T517 53L355 192Q310 231 310 282Q310 308 323 330T356 371L505 506Q533 475 544 454T555 409Q555 394 550 377T530 341L487 282ZM207 282L255 217Q267 200 273 184T279 148Q279 125 270 103T237 53L75 192Q30 231 30 282Q30 308 43 330T76 371L225 506Q253 475 264 454T275 409Q275 394 270 377T250 341L207 282Z"  />
<glyph unicode="&#xAC;" horiz-adv-x="600" d="M388 94V252H43V412H557V94H388Z"  />
<glyph unicode="&#xAD;" horiz-adv-x="441" d="M143 217Q91 217 68 241T45 303Q45 335 48 367H290Q338 367 367 349T396 281Q396 265 396 249T394 217H143Z"  />
<glyph unicode="&#xAE;" horiz-adv-x="814" d="M607 131Q584 119 566 115T533 110Q511 110 492 118T458 149L386 263H371V120H256V543Q269 544 286 545T322 548T359 549T392 550Q487 550 532 511T577 413Q577 365 555 335T506 287L607 131ZM451 405Q451 434 435 447T391 460Q387 460 381 460T371 459V346H395Q426 346 438 363T451 405ZM764 317Q764 242 739 174T666 55T553 -27T405 -57Q318 -57 252 -27T141 54T73 174T50 317Q50 392 75 459T147 578T260 659T407 689Q488 689 554 659T666 578T738 460T764 317ZM700 317Q700 377 679 433T620 533T528 602T407 628Q340 628 286 602T194 533T135 434T114 317Q114 257 133 201T189 101T280 31T405 5Q472 5 526 31T619 100T679 200T700 317Z"  />
<glyph unicode="&#xAF;" horiz-adv-x="500" d="M176 558Q124 558 107 575T89 624Q89 640 89 651T92 678H322Q367 678 388 664T410 605Q410 593 410 583T408 558H176Z"  />
<glyph unicode="&#xB0;" horiz-adv-x="377" d="M337 552Q337 522 326 495T296 448T249 417T188 405Q154 405 127 416T80 448T50 495T39 552Q39 582 50 609T80 656T127 687T188 699Q222 699 249 688T296 658T326 611T337 552ZM260 552Q260 584 240 605T188 627Q158 627 139 606T119 552Q119 522 138 500T188 478Q220 478 240 500T260 552Z"  />
<glyph unicode="&#xB1;" horiz-adv-x="600" d="M53 0V160H215V321H53V481H215V668H384V481H547V321H384V160H547V0H53Z"  />
<glyph unicode="&#xB2;" horiz-adv-x="390" d="M46 289V386Q64 398 92 421T146 469Q171 492 187 513T204 554Q204 577 189 583T157 590Q136 590 114 580T73 554Q56 574 46 592T36 624Q36 643 55 656Q73 669 105 680T188 691Q218 691 245 684T293 662T326 623T338 565Q338 528 319 500T274 446Q260 432 245 419T216 395H283Q315 395 333 382T351 331Q351 322 351 315T349 301L347 289H46Z"  />
<glyph unicode="&#xB3;" horiz-adv-x="390" d="M350 404Q350 344 310 310T185 275Q140 275 113 282T69 299Q40 314 40 339Q40 352 46 368T73 414Q91 397 116 385T169 372Q191 372 204 380T218 408Q218 421 213 429T200 442T183 448T165 450H129V530H169Q185 530 197 538T209 564Q209 581 198 588T170 595Q145 595 124 587T75 562Q39 601 39 627Q39 639 46 648T62 662Q82 674 115 682T194 691Q272 691 306 661T341 586Q341 548 323 528T280 495Q309 484 329 463T350 404Z"  />
<glyph unicode="&#xB4;" horiz-adv-x="500" d="M258 563Q244 549 230 544T199 539Q180 539 161 551T127 574L213 689Q226 706 242 720T284 734Q308 734 333 717T377 682L258 563Z"  />
<glyph unicode="&#xB5;" horiz-adv-x="600" d="M384 46Q375 28 357 10T303 -9Q283 -9 265 -4T236 14V-218H51V479Q76 484 95 485T128 486Q152 486 174 482T213 466T241 435T252 383V212Q252 190 254 177T262 156T274 146T291 143Q317 143 323 156T330 206V479Q355 484 374 485T407 486Q431 486 453 482T492 466T520 435T531 383V198Q531 169 533 151T544 122T566 106T605 100V10Q583 0 549 -5T483 -10Q439 -10 417 6T384 46Z"  />
<glyph unicode="&#xB6;" horiz-adv-x="601" d="M233 -118V235Q188 235 152 253T92 301T54 370T40 454Q40 559 95 615T247 671H445Q490 671 515 650T541 574V-118H423V574H351V-118H233Z"  />
<glyph unicode="&#xB7;" horiz-adv-x="310" d="M250 332Q250 290 225 264T155 238Q110 238 85 264T60 332Q60 374 86 399T155 424Q197 424 223 399T250 332Z"  />
<glyph unicode="&#xB8;" horiz-adv-x="500" d="M349 -138Q349 -160 339 -179T311 -212T272 -235T225 -243Q190 -243 170 -232T150 -198Q150 -189 152 -175T160 -142Q168 -148 180 -152T206 -157Q232 -157 232 -138Q232 -126 226 -119T213 -105T200 -88T194 -61Q194 -40 206 -23T228 4H320Q307 -8 301 -17T294 -37Q294 -48 302 -56T321 -75T340 -99T349 -138Z"  />
<glyph unicode="&#xB9;" horiz-adv-x="390" d="M165 289V529L76 485Q63 505 52 528T40 569Q40 587 48 597T78 619L182 674Q196 682 210 686T246 691Q271 691 283 684T303 668V289H165Z"  />
<glyph unicode="&#xBA;" horiz-adv-x="478" d="M443 507Q443 466 432 428T397 360T333 313T238 295Q183 295 145 312T82 358T46 425T35 505Q35 547 48 584T86 649T151 693T241 709Q296 709 334 693T397 650T432 585T443 507ZM282 503Q282 537 273 561T240 585Q227 585 219 578T205 559T197 532T195 502Q195 468 204 444T239 419Q265 419 273 444T282 503Z"  />
<glyph unicode="&#xBB;" horiz-adv-x="599" d="M349 341Q335 360 330 377T324 409Q324 432 335 453T374 506L523 371Q543 353 556 331T569 282Q569 231 524 192L362 53Q339 81 330 103T320 148Q320 167 326 183T344 217L392 282L349 341ZM69 341Q55 360 50 377T44 409Q44 432 55 453T94 506L243 371Q263 353 276 331T289 282Q289 231 244 192L82 53Q59 81 50 103T40 148Q40 167 46 183T64 217L112 282L69 341Z"  />
<glyph unicode="&#xBC;" horiz-adv-x="900" d="M341 0H197L521 600Q531 619 540 634T563 661T594 679T641 685Q657 685 673 683T703 673L341 0ZM151 289V529L62 485Q49 505 38 528T26 569Q26 587 34 597T64 619L168 674Q182 682 196 686T232 691Q257 691 269 684T289 668V289H151ZM513 75V156L651 364Q663 382 681 393T733 404Q757 404 777 398T806 386V161H825Q845 161 853 152T861 126Q861 117 860 104T856 75H806V2H672V75H513ZM672 161V270H668L598 161H672Z"  />
<glyph unicode="&#xBD;" horiz-adv-x="900" d="M326 0H182L506 600Q516 619 525 634T548 661T579 679T626 685Q642 685 658 683T688 673L326 0ZM151 289V529L62 485Q49 505 38 528T26 569Q26 587 34 597T64 619L168 674Q182 682 196 686T232 691Q257 691 269 684T289 668V289H151ZM564 2V99Q582 111 610 134T664 182Q689 205 705 226T722 267Q722 290 707 296T675 303Q654 303 632 293T591 267Q574 287 564 305T554 337Q554 356 573 369Q591 382 623 393T706 404Q736 404 763 397T811 375T844 336T856 278Q856 241 837 213T792 159Q778 145 763 132T734 108H801Q833 108 851 95T869 44Q869 35 869 28T867 14L865 2H564Z"  />
<glyph unicode="&#xBE;" horiz-adv-x="900" d="M350 0H206L530 600Q540 619 549 634T572 661T603 679T650 685Q666 685 682 683T712 673L350 0ZM361 404Q361 344 321 310T196 275Q151 275 124 282T80 299Q51 314 51 339Q51 352 57 368T84 414Q102 397 127 385T180 372Q202 372 215 380T229 408Q229 421 224 429T211 442T194 448T176 450H140V530H180Q196 530 208 538T220 564Q220 581 209 588T181 595Q156 595 135 587T86 562Q50 601 50 627Q50 639 57 648T73 662Q93 674 126 682T205 691Q283 691 317 661T352 586Q352 548 334 528T291 495Q320 484 340 463T361 404ZM501 75V156L639 364Q651 382 669 393T721 404Q745 404 765 398T794 386V161H813Q833 161 841 152T849 126Q849 117 848 104T844 75H794V2H660V75H501ZM660 161V270H656L586 161H660Z"  />
<glyph unicode="&#xBF;" horiz-adv-x="477" d="M259 -221Q212 -221 172 -210T101 -178T53 -125T35 -51Q35 -18 43 7T64 51T95 86T129 116Q156 138 175 159T195 215Q195 237 191 257Q200 259 211 260T233 261Q255 261 278 257T319 242T350 213T362 169Q362 129 341 103T291 51Q271 32 256 14T241 -28Q241 -54 257 -63T298 -72Q321 -72 352 -60T415 -24Q442 -55 454 -77T467 -115Q467 -131 461 -144T435 -173Q415 -188 373 -204T259 -221ZM173 383Q173 425 198 450T269 475Q314 475 339 450T365 383Q365 341 340 317T269 292Q226 292 200 316T173 383Z"  />
<glyph unicode="&#xC0;" horiz-adv-x="670" d="M470 0L415 158H249L198 0H0L215 655Q234 663 266 669T336 676Q352 676 372 674T411 663T446 636T474 587L670 0H470ZM353 412Q348 433 342 462T334 512H331Q329 491 323 461T312 413L277 286H386L353 412ZM186 812Q204 835 226 856T279 877Q298 877 313 869T343 849L444 765Q429 745 410 730T364 715Q342 715 320 729L186 812Z"  />
<glyph unicode="&#xC1;" horiz-adv-x="670" d="M470 0L415 158H249L198 0H0L215 655Q234 663 266 669T336 676Q352 676 372 674T411 663T446 636T474 587L670 0H470ZM353 412Q348 433 342 462T334 512H331Q329 491 323 461T312 413L277 286H386L353 412ZM357 729Q335 715 313 715Q287 715 268 730T233 765L334 849Q348 860 363 868T398 877Q428 877 450 856T491 812L357 729Z"  />
<glyph unicode="&#xC2;" horiz-adv-x="670" d="M470 0L415 158H249L198 0H0L215 655Q234 663 266 669T336 676Q352 676 372 674T411 663T446 636T474 587L670 0H470ZM353 412Q348 433 342 462T334 512H331Q329 491 323 461T312 413L277 286H386L353 412ZM333 779L281 732Q269 721 256 717T229 713Q211 713 193 719T168 733L246 840Q263 863 285 872T335 881Q361 881 383 873T421 843L502 733Q494 725 477 719T444 713Q430 713 415 717T385 733L333 779Z"  />
<glyph unicode="&#xC3;" horiz-adv-x="670" d="M470 0L415 158H249L198 0H0L215 655Q234 663 266 669T336 676Q352 676 372 674T411 663T446 636T474 587L670 0H470ZM353 412Q348 433 342 462T334 512H331Q329 491 323 461T312 413L277 286H386L353 412ZM422 734Q395 734 375 739T337 752T306 764T276 770Q251 770 234 759T200 727L167 761Q150 778 150 796Q150 818 173 839Q213 876 269 876Q292 876 310 871T343 858T373 846T405 840Q428 840 440 850T471 884L501 846Q518 823 518 805Q518 786 509 773T487 751T456 738T422 734Z"  />
<glyph unicode="&#xC4;" horiz-adv-x="670" d="M470 0L415 158H249L198 0H0L215 655Q234 663 266 669T336 676Q352 676 372 674T411 663T446 636T474 587L670 0H470ZM353 412Q348 433 342 462T334 512H331Q329 491 323 461T312 413L277 286H386L353 412ZM528 805Q528 768 504 747T444 725Q409 725 385 746T360 805Q360 841 384 863T444 885Q479 885 503 863T528 805ZM304 805Q304 768 280 747T220 725Q185 725 161 746T136 805Q136 841 160 863T220 885Q255 885 279 863T304 805Z"  />
<glyph unicode="&#xC5;" horiz-adv-x="670" d="M453 768Q453 736 440 710T403 666Q424 658 443 640T474 587L670 0H470L415 158H249L198 0H0L215 655Q233 663 261 669Q216 703 216 767Q216 792 224 814T247 853T285 880T335 890Q362 890 384 880T421 854T444 815T453 768ZM353 412Q348 433 342 462T334 512H331Q329 491 323 461T312 413L277 286H386L353 412ZM383 767Q383 790 371 807T335 824Q312 824 299 808T286 768Q286 745 299 728T335 711Q358 711 370 728T383 767Z"  />
<glyph unicode="&#xC6;" horiz-adv-x="951" d="M815 152Q849 152 871 144T905 121T921 90T926 56Q926 39 926 28T924 0H453V158H296L218 0H0L300 580Q325 629 358 650T448 671H909Q911 651 912 640T913 611Q913 594 908 578T891 548T858 526T805 517H655V416H848V263H655V152H815ZM355 286H453V522H450Q443 493 433 463T414 416L355 286Z"  />
<glyph unicode="&#xC7;" horiz-adv-x="596" d="M439 -138Q439 -160 429 -179T401 -212T362 -235T315 -243Q280 -243 260 -232T240 -198Q240 -189 242 -175T250 -142Q258 -148 270 -152T296 -157Q322 -157 322 -138Q322 -126 316 -119T303 -105T290 -88T284 -61Q284 -47 289 -36T302 -14Q233 -5 183 24T99 98T50 202T33 331Q33 407 52 471T112 583T214 657T360 684Q399 684 430 678T485 663T526 644T553 625Q564 615 576 600T588 565Q588 545 570 519T522 464Q487 496 457 512T385 528Q344 528 316 511T271 467T246 406T238 338Q238 300 245 264T270 200T315 155T385 138Q425 138 454 151T515 194Q523 185 533 173T552 147T567 119T573 91Q573 61 545 36Q539 30 528 22T497 6T452 -8T390 -17Q384 -26 384 -37Q384 -48 392 -56T411 -75T430 -99T439 -138Z"  />
<glyph unicode="&#xC8;" horiz-adv-x="553" d="M417 152Q451 152 473 144T507 121T523 90T528 56Q528 39 528 28T526 0H55V671H511Q513 651 514 640T515 611Q515 594 510 578T493 548T460 526T407 517H257V416H450V263H257V152H417ZM131 812Q149 835 171 856T224 877Q243 877 258 869T288 849L389 765Q374 745 355 730T309 715Q287 715 265 729L131 812Z"  />
<glyph unicode="&#xC9;" horiz-adv-x="553" d="M417 152Q451 152 473 144T507 121T523 90T528 56Q528 39 528 28T526 0H55V671H511Q513 651 514 640T515 611Q515 594 510 578T493 548T460 526T407 517H257V416H450V263H257V152H417ZM301 729Q279 715 257 715Q231 715 212 730T177 765L278 849Q292 860 307 868T342 877Q372 877 394 856T435 812L301 729Z"  />
<glyph unicode="&#xCA;" horiz-adv-x="553" d="M417 152Q451 152 473 144T507 121T523 90T528 56Q528 39 528 28T526 0H55V671H511Q513 651 514 640T515 611Q515 594 510 578T493 548T460 526T407 517H257V416H450V263H257V152H417ZM278 779L226 732Q214 721 201 717T174 713Q156 713 138 719T113 733L191 840Q208 863 230 872T280 881Q306 881 328 873T366 843L447 733Q439 725 422 719T389 713Q375 713 360 717T330 733L278 779Z"  />
<glyph unicode="&#xCB;" horiz-adv-x="553" d="M417 152Q451 152 473 144T507 121T523 90T528 56Q528 39 528 28T526 0H55V671H511Q513 651 514 640T515 611Q515 594 510 578T493 548T460 526T407 517H257V416H450V263H257V152H417ZM480 805Q480 768 456 747T396 725Q361 725 337 746T312 805Q312 841 336 863T396 885Q431 885 455 863T480 805ZM256 805Q256 768 232 747T172 725Q137 725 113 746T88 805Q88 841 112 863T172 885Q207 885 231 863T256 805Z"  />
<glyph unicode="&#xCC;" horiz-adv-x="311" d="M256 0H55V669Q81 674 101 675T132 676Q152 676 174 673T214 659T244 628T256 576V0ZM9 812Q27 835 49 856T102 877Q121 877 136 869T166 849L267 765Q252 745 233 730T187 715Q165 715 143 729L9 812Z"  />
<glyph unicode="&#xCD;" horiz-adv-x="311" d="M256 0H55V669Q81 674 101 675T132 676Q152 676 174 673T214 659T244 628T256 576V0ZM179 729Q157 715 135 715Q109 715 90 730T55 765L156 849Q170 860 185 868T220 877Q250 877 272 856T313 812L179 729Z"  />
<glyph unicode="&#xCE;" horiz-adv-x="311" d="M256 0H55V669Q81 674 101 675T132 676Q152 676 174 673T214 659T244 628T256 576V0ZM152 779L100 732Q88 721 75 717T48 713Q30 713 12 719T-13 733L65 840Q82 863 104 872T154 881Q180 881 202 873T240 843L321 733Q313 725 296 719T263 713Q249 713 234 717T204 733L152 779Z"  />
<glyph unicode="&#xCF;" horiz-adv-x="311" d="M256 0H55V669Q81 674 101 675T132 676Q152 676 174 673T214 659T244 628T256 576V0ZM348 805Q348 768 324 747T264 725Q229 725 205 746T180 805Q180 841 204 863T264 885Q299 885 323 863T348 805ZM124 805Q124 768 100 747T40 725Q5 725 -19 746T-44 805Q-44 841 -20 863T40 885Q75 885 99 863T124 805Z"  />
<glyph unicode="&#xD0;" horiz-adv-x="684" d="M83 307H20V387H83V662Q161 672 211 674T294 676Q399 676 467 650T576 580T633 476T649 350Q649 279 631 216T573 104T472 28T324 0H83V307ZM309 151Q353 151 380 169T421 217T440 281T445 348Q445 384 439 416T418 472T377 511T310 525Q304 525 298 525T285 524V387H370V307H285V151H309Z"  />
<glyph unicode="&#xD1;" horiz-adv-x="676" d="M425 312V669Q448 674 467 675T497 676Q517 676 539 673T579 659T609 629T621 577V0H459L250 332V0H55V669Q69 671 93 673T143 676Q191 676 215 661T256 616L425 312ZM418 734Q391 734 371 739T333 752T302 764T272 770Q247 770 230 759T196 727L163 761Q146 778 146 796Q146 818 169 839Q209 876 265 876Q288 876 306 871T339 858T369 846T401 840Q424 840 436 850T467 884L497 846Q514 823 514 805Q514 786 505 773T483 751T452 738T418 734Z"  />
<glyph unicode="&#xD2;" horiz-adv-x="708" d="M673 336Q673 262 655 198T597 85T497 10T350 -18Q265 -18 205 9T107 84T51 196T33 335Q33 406 52 469T112 580T213 656T358 684Q440 684 500 658T598 585T654 475T673 336ZM468 335Q468 373 462 408T443 469T408 511T357 527Q325 527 303 512T266 470T246 408T239 335Q239 296 245 261T265 198T301 155T354 139Q385 139 407 155T442 198T462 260T468 335ZM210 812Q228 835 250 856T303 877Q322 877 337 869T367 849L468 765Q453 745 434 730T388 715Q366 715 344 729L210 812Z"  />
<glyph unicode="&#xD3;" horiz-adv-x="708" d="M673 336Q673 262 655 198T597 85T497 10T350 -18Q265 -18 205 9T107 84T51 196T33 335Q33 406 52 469T112 580T213 656T358 684Q440 684 500 658T598 585T654 475T673 336ZM468 335Q468 373 462 408T443 469T408 511T357 527Q325 527 303 512T266 470T246 408T239 335Q239 296 245 261T265 198T301 155T354 139Q385 139 407 155T442 198T462 260T468 335ZM386 729Q364 715 342 715Q316 715 297 730T262 765L363 849Q377 860 392 868T427 877Q457 877 479 856T520 812L386 729Z"  />
<glyph unicode="&#xD4;" horiz-adv-x="708" d="M673 336Q673 262 655 198T597 85T497 10T350 -18Q265 -18 205 9T107 84T51 196T33 335Q33 406 52 469T112 580T213 656T358 684Q440 684 500 658T598 585T654 475T673 336ZM468 335Q468 373 462 408T443 469T408 511T357 527Q325 527 303 512T266 470T246 408T239 335Q239 296 245 261T265 198T301 155T354 139Q385 139 407 155T442 198T462 260T468 335ZM361 779L309 732Q297 721 284 717T257 713Q239 713 221 719T196 733L274 840Q291 863 313 872T363 881Q389 881 411 873T449 843L530 733Q522 725 505 719T472 713Q458 713 443 717T413 733L361 779Z"  />
<glyph unicode="&#xD5;" horiz-adv-x="708" d="M673 336Q673 262 655 198T597 85T497 10T350 -18Q265 -18 205 9T107 84T51 196T33 335Q33 406 52 469T112 580T213 656T358 684Q440 684 500 658T598 585T654 475T673 336ZM468 335Q468 373 462 408T443 469T408 511T357 527Q325 527 303 512T266 470T246 408T239 335Q239 296 245 261T265 198T301 155T354 139Q385 139 407 155T442 198T462 260T468 335ZM445 734Q418 734 398 739T360 752T329 764T299 770Q274 770 257 759T223 727L190 761Q173 778 173 796Q173 818 196 839Q236 876 292 876Q315 876 333 871T366 858T396 846T428 840Q451 840 463 850T494 884L524 846Q541 823 541 805Q541 786 532 773T510 751T479 738T445 734Z"  />
<glyph unicode="&#xD6;" horiz-adv-x="708" d="M673 336Q673 262 655 198T597 85T497 10T350 -18Q265 -18 205 9T107 84T51 196T33 335Q33 406 52 469T112 580T213 656T358 684Q440 684 500 658T598 585T654 475T673 336ZM468 335Q468 373 462 408T443 469T408 511T357 527Q325 527 303 512T266 470T246 408T239 335Q239 296 245 261T265 198T301 155T354 139Q385 139 407 155T442 198T462 260T468 335ZM561 805Q561 768 537 747T477 725Q442 725 418 746T393 805Q393 841 417 863T477 885Q512 885 536 863T561 805ZM337 805Q337 768 313 747T253 725Q218 725 194 746T169 805Q169 841 193 863T253 885Q288 885 312 863T337 805Z"  />
<glyph unicode="&#xD7;" horiz-adv-x="600" d="M423 90L298 216L176 94L63 207L184 329L56 457L176 577L304 449L426 571L539 458L417 335L543 210L423 90Z"  />
<glyph unicode="&#xD8;" horiz-adv-x="708" d="M673 336Q673 262 655 198T597 85T497 10T350 -18Q308 -18 273 -11T207 8L143 -104L86 -74L151 40Q88 88 61 164T33 335Q33 406 52 469T112 580T213 656T358 684Q443 684 503 656L561 757L617 727L558 623Q618 577 645 503T673 336ZM239 335Q239 304 243 275T255 222L416 505Q393 527 357 527Q325 527 303 512T266 470T246 408T239 335ZM468 335Q468 364 465 391T454 441L293 160Q317 139 354 139Q385 139 407 155T442 198T462 260T468 335Z"  />
<glyph unicode="&#xD9;" horiz-adv-x="654" d="M251 270Q251 225 259 196Q266 175 282 159T330 143Q354 143 371 154T397 195Q400 208 401 227T403 270V669Q429 674 449 675T480 676Q499 676 521 673T561 659T592 628T604 576V276Q604 256 603 234T600 189Q596 147 579 110T528 45T446 1T328 -15Q261 -15 213 -2T131 37T80 102T54 192Q52 211 51 235T50 276V669Q76 674 96 675T127 676Q147 676 169 673T209 659T239 628T251 576V270ZM173 812Q191 835 213 856T266 877Q285 877 300 869T330 849L431 765Q416 745 397 730T351 715Q329 715 307 729L173 812Z"  />
<glyph unicode="&#xDA;" horiz-adv-x="654" d="M251 270Q251 225 259 196Q266 175 282 159T330 143Q354 143 371 154T397 195Q400 208 401 227T403 270V669Q429 674 449 675T480 676Q499 676 521 673T561 659T592 628T604 576V276Q604 256 603 234T600 189Q596 147 579 110T528 45T446 1T328 -15Q261 -15 213 -2T131 37T80 102T54 192Q52 211 51 235T50 276V669Q76 674 96 675T127 676Q147 676 169 673T209 659T239 628T251 576V270ZM360 729Q338 715 316 715Q290 715 271 730T236 765L337 849Q351 860 366 868T401 877Q431 877 453 856T494 812L360 729Z"  />
<glyph unicode="&#xDB;" horiz-adv-x="654" d="M251 270Q251 225 259 196Q266 175 282 159T330 143Q354 143 371 154T397 195Q400 208 401 227T403 270V669Q429 674 449 675T480 676Q499 676 521 673T561 659T592 628T604 576V276Q604 256 603 234T600 189Q596 147 579 110T528 45T446 1T328 -15Q261 -15 213 -2T131 37T80 102T54 192Q52 211 51 235T50 276V669Q76 674 96 675T127 676Q147 676 169 673T209 659T239 628T251 576V270ZM326 779L274 732Q262 721 249 717T222 713Q204 713 186 719T161 733L239 840Q256 863 278 872T328 881Q354 881 376 873T414 843L495 733Q487 725 470 719T437 713Q423 713 408 717T378 733L326 779Z"  />
<glyph unicode="&#xDC;" horiz-adv-x="654" d="M251 270Q251 225 259 196Q266 175 282 159T330 143Q354 143 371 154T397 195Q400 208 401 227T403 270V669Q429 674 449 675T480 676Q499 676 521 673T561 659T592 628T604 576V276Q604 256 603 234T600 189Q596 147 579 110T528 45T446 1T328 -15Q261 -15 213 -2T131 37T80 102T54 192Q52 211 51 235T50 276V669Q76 674 96 675T127 676Q147 676 169 673T209 659T239 628T251 576V270ZM527 805Q527 768 503 747T443 725Q408 725 384 746T359 805Q359 841 383 863T443 885Q478 885 502 863T527 805ZM303 805Q303 768 279 747T219 725Q184 725 160 746T135 805Q135 841 159 863T219 885Q254 885 278 863T303 805Z"  />
<glyph unicode="&#xDD;" horiz-adv-x="629" d="M414 231V0H212V226L0 643Q26 657 61 666T124 676Q172 676 197 658T237 605L315 418L392 607Q405 638 430 657T505 676Q531 676 564 669T629 651L414 231ZM354 729Q332 715 310 715Q284 715 265 730T230 765L331 849Q345 860 360 868T395 877Q425 877 447 856T488 812L354 729Z"  />
<glyph unicode="&#xDE;" horiz-adv-x="567" d="M246 556Q273 559 299 559Q361 559 407 544T485 501T531 435T547 348Q547 282 526 235T467 158T379 113T271 99H247V0H45V669Q73 674 92 675T122 676Q142 676 164 673T204 659T234 628T246 576V556ZM343 340Q343 426 269 426Q264 426 258 426T246 425V236H263Q305 236 324 264T343 340Z"  />
<glyph unicode="&#xDF;" horiz-adv-x="659" d="M370 508Q370 534 353 548T307 563Q278 563 259 549T239 496V0H40V493Q40 503 40 513T41 534T43 551Q56 632 120 674T304 717Q352 717 395 708T471 679T522 631T541 563Q541 533 531 510T508 468T485 431T474 396Q474 380 486 369T518 346T559 322T600 288T631 239T644 168Q644 128 630 95T590 37T526 -1T441 -15Q406 -15 373 -9T319 8Q293 21 283 36T273 69Q273 95 286 120T315 170Q338 149 364 136T418 123Q440 123 449 133T458 157Q458 172 447 183T418 205T380 226T343 251T314 285T302 332Q302 365 312 388T336 430T359 467T370 508Z"  />
<glyph unicode="&#xE0;" horiz-adv-x="524" d="M484 109Q484 84 488 55T499 3Q485 -1 474 -3T453 -7T431 -9T405 -10Q324 -10 311 36Q294 19 262 5T178 -9Q147 -9 119 -1T68 24T33 70T20 140Q20 198 50 232T124 285T214 308T294 313V327Q294 355 276 362T231 370Q196 370 162 361T86 331Q67 354 58 376T48 409Q48 424 58 437T99 466Q126 480 172 488T266 496Q383 496 433 450T484 304V109ZM297 224Q278 222 261 218T232 207T212 187T204 156Q204 133 216 121T251 108Q269 108 283 116T297 140V224ZM120 682Q139 699 164 716T213 734Q239 734 255 720T284 689L370 574Q356 563 337 551T298 539Q281 539 267 544T239 563L120 682Z"  />
<glyph unicode="&#xE1;" horiz-adv-x="524" d="M484 109Q484 84 488 55T499 3Q485 -1 474 -3T453 -7T431 -9T405 -10Q324 -10 311 36Q294 19 262 5T178 -9Q147 -9 119 -1T68 24T33 70T20 140Q20 198 50 232T124 285T214 308T294 313V327Q294 355 276 362T231 370Q196 370 162 361T86 331Q67 354 58 376T48 409Q48 424 58 437T99 466Q126 480 172 488T266 496Q383 496 433 450T484 304V109ZM297 224Q278 222 261 218T232 207T212 187T204 156Q204 133 216 121T251 108Q269 108 283 116T297 140V224ZM315 563Q301 549 287 544T256 539Q237 539 218 551T184 574L270 689Q283 706 299 720T341 734Q365 734 390 717T434 682L315 563Z"  />
<glyph unicode="&#xE2;" horiz-adv-x="524" d="M484 109Q484 84 488 55T499 3Q485 -1 474 -3T453 -7T431 -9T405 -10Q324 -10 311 36Q294 19 262 5T178 -9Q147 -9 119 -1T68 24T33 70T20 140Q20 198 50 232T124 285T214 308T294 313V327Q294 355 276 362T231 370Q196 370 162 361T86 331Q67 354 58 376T48 409Q48 424 58 437T99 466Q126 480 172 488T266 496Q383 496 433 450T484 304V109ZM297 224Q278 222 261 218T232 207T212 187T204 156Q204 133 216 121T251 108Q269 108 283 116T297 140V224ZM271 630L222 572Q196 542 153 542Q135 542 120 547T94 561L179 687Q195 710 218 723T273 736Q331 736 361 693L449 561Q421 542 391 542Q370 542 353 549T318 576L271 630Z"  />
<glyph unicode="&#xE3;" horiz-adv-x="524" d="M484 109Q484 84 488 55T499 3Q485 -1 474 -3T453 -7T431 -9T405 -10Q324 -10 311 36Q294 19 262 5T178 -9Q147 -9 119 -1T68 24T33 70T20 140Q20 198 50 232T124 285T214 308T294 313V327Q294 355 276 362T231 370Q196 370 162 361T86 331Q67 354 58 376T48 409Q48 424 58 437T99 466Q126 480 172 488T266 496Q383 496 433 450T484 304V109ZM297 224Q278 222 261 218T232 207T212 187T204 156Q204 133 216 121T251 108Q269 108 283 116T297 140V224ZM347 558Q320 558 300 563T262 576T231 588T201 594Q176 594 159 583T125 551L92 585Q75 602 75 620Q75 642 98 663Q138 700 194 700Q217 700 235 695T268 682T298 670T330 664Q353 664 365 674T396 708L426 670Q443 647 443 629Q443 610 434 597T412 575T381 562T347 558Z"  />
<glyph unicode="&#xE4;" horiz-adv-x="524" d="M484 109Q484 84 488 55T499 3Q485 -1 474 -3T453 -7T431 -9T405 -10Q324 -10 311 36Q294 19 262 5T178 -9Q147 -9 119 -1T68 24T33 70T20 140Q20 198 50 232T124 285T214 308T294 313V327Q294 355 276 362T231 370Q196 370 162 361T86 331Q67 354 58 376T48 409Q48 424 58 437T99 466Q126 480 172 488T266 496Q383 496 433 450T484 304V109ZM297 224Q278 222 261 218T232 207T212 187T204 156Q204 133 216 121T251 108Q269 108 283 116T297 140V224ZM465 629Q465 592 441 571T381 549Q346 549 322 570T297 629Q297 665 321 687T381 709Q416 709 440 687T465 629ZM231 629Q231 592 207 571T147 549Q112 549 88 570T63 629Q63 665 87 687T147 709Q182 709 206 687T231 629Z"  />
<glyph unicode="&#xE5;" horiz-adv-x="524" d="M484 109Q484 84 488 55T499 3Q485 -1 474 -3T453 -7T431 -9T405 -10Q324 -10 311 36Q294 19 262 5T178 -9Q147 -9 119 -1T68 24T33 70T20 140Q20 198 50 232T124 285T214 308T294 313V327Q294 355 276 362T231 370Q196 370 162 361T86 331Q67 354 58 376T48 409Q48 424 58 437T99 466Q126 480 172 488T266 496Q383 496 433 450T484 304V109ZM297 224Q278 222 261 218T232 207T212 187T204 156Q204 133 216 121T251 108Q269 108 283 116T297 140V224ZM389 665Q389 640 381 618T357 580T320 553T271 543Q243 543 221 552T184 578T160 617T152 664Q152 689 160 711T183 750T221 777T271 787Q298 787 320 777T357 751T380 712T389 665ZM319 664Q319 687 307 704T271 721Q248 721 235 705T222 665Q222 642 235 625T271 608Q294 608 306 625T319 664Z"  />
<glyph unicode="&#xE6;" horiz-adv-x="777" d="M589 125Q629 125 656 137T710 169Q723 149 736 123T749 77Q749 60 740 45T708 16Q686 3 649 -6T555 -15Q532 -15 507 -13T457 -4T409 15T368 46Q335 20 291 3T183 -15Q147 -15 118 -6T66 21T32 69T20 140Q20 198 50 231T124 282T214 303T294 308V327Q294 355 276 362T231 370Q196 370 162 361T86 331Q67 354 58 376T48 409Q48 424 57 438T99 466Q127 479 172 487T260 496Q309 496 345 482T403 436Q427 462 465 479T554 496Q608 496 646 478T709 430T745 360T757 276Q757 271 757 263T757 245T756 228T754 216H487Q492 178 515 152T589 125ZM297 217Q281 215 265 212T235 202T213 184T204 156Q204 110 249 110Q267 110 286 116T316 130Q308 149 303 172T297 217ZM580 299Q580 341 569 356T532 371Q484 371 484 299H580Z"  />
<glyph unicode="&#xE7;" horiz-adv-x="465" d="M359 -138Q359 -160 349 -179T321 -212T282 -235T235 -243Q200 -243 180 -232T160 -198Q160 -189 162 -175T170 -142Q178 -148 190 -152T216 -157Q242 -157 242 -138Q242 -126 236 -119T223 -105T210 -88T204 -61Q204 -46 210 -34T225 -10Q188 -4 153 11T89 56T43 131T25 243Q25 318 50 366T114 444T198 484T282 496Q317 496 351 489T412 467Q436 453 448 438T460 400Q460 382 448 357T419 306Q391 329 368 340T312 352Q272 352 250 324T227 247Q227 222 231 200T247 161T275 134T320 124Q348 124 371 135T416 164Q423 155 430 144T444 121T454 97T458 75Q458 58 451 44T420 16Q402 4 375 -3T312 -14Q304 -23 304 -37Q304 -48 312 -56T331 -75T350 -99T359 -138Z"  />
<glyph unicode="&#xE8;" horiz-adv-x="515" d="M327 125Q367 125 394 137T448 169Q461 149 474 123T487 77Q487 60 478 45T446 16Q424 3 387 -6T293 -15Q252 -15 205 -5T118 34T52 115T25 253Q25 316 46 362T102 438T181 482T271 496Q332 496 375 478T444 430T483 360T495 276Q495 271 495 263T495 245T494 228T492 216H225Q230 178 253 152T327 125ZM318 299Q318 341 307 356T269 371Q222 371 222 299H318ZM115 682Q134 699 159 716T208 734Q234 734 250 720T279 689L365 574Q351 563 332 551T293 539Q276 539 262 544T234 563L115 682Z"  />
<glyph unicode="&#xE9;" horiz-adv-x="515" d="M327 125Q367 125 394 137T448 169Q461 149 474 123T487 77Q487 60 478 45T446 16Q424 3 387 -6T293 -15Q252 -15 205 -5T118 34T52 115T25 253Q25 316 46 362T102 438T181 482T271 496Q332 496 375 478T444 430T483 360T495 276Q495 271 495 263T495 245T494 228T492 216H225Q230 178 253 152T327 125ZM318 299Q318 341 307 356T269 371Q222 371 222 299H318ZM325 563Q311 549 297 544T266 539Q247 539 228 551T194 574L280 689Q293 706 309 720T351 734Q375 734 400 717T444 682L325 563Z"  />
<glyph unicode="&#xEA;" horiz-adv-x="515" d="M327 125Q367 125 394 137T448 169Q461 149 474 123T487 77Q487 60 478 45T446 16Q424 3 387 -6T293 -15Q252 -15 205 -5T118 34T52 115T25 253Q25 316 46 362T102 438T181 482T271 496Q332 496 375 478T444 430T483 360T495 276Q495 271 495 263T495 245T494 228T492 216H225Q230 178 253 152T327 125ZM318 299Q318 341 307 356T269 371Q222 371 222 299H318ZM270 630L221 572Q195 542 152 542Q134 542 119 547T93 561L178 687Q194 710 217 723T272 736Q330 736 360 693L448 561Q420 542 390 542Q369 542 352 549T317 576L270 630Z"  />
<glyph unicode="&#xEB;" horiz-adv-x="515" d="M327 125Q367 125 394 137T448 169Q461 149 474 123T487 77Q487 60 478 45T446 16Q424 3 387 -6T293 -15Q252 -15 205 -5T118 34T52 115T25 253Q25 316 46 362T102 438T181 482T271 496Q332 496 375 478T444 430T483 360T495 276Q495 271 495 263T495 245T494 228T492 216H225Q230 178 253 152T327 125ZM318 299Q318 341 307 356T269 371Q222 371 222 299H318ZM473 629Q473 592 449 571T389 549Q354 549 330 570T305 629Q305 665 329 687T389 709Q424 709 448 687T473 629ZM239 629Q239 592 215 571T155 549Q120 549 96 570T71 629Q71 665 95 687T155 709Q190 709 214 687T239 629Z"  />
<glyph unicode="&#xEC;" horiz-adv-x="280" d="M40 479Q70 484 86 485T116 486Q140 486 162 482T202 466T229 434T240 381V4Q201 -9 167 -9Q121 -9 96 2T58 31T43 72T40 122V479ZM-7 682Q12 699 37 716T86 734Q112 734 128 720T157 689L243 574Q229 563 210 551T171 539Q154 539 140 544T112 563L-7 682Z"  />
<glyph unicode="&#xED;" horiz-adv-x="280" d="M40 479Q70 484 86 485T116 486Q140 486 162 482T202 466T229 434T240 381V4Q201 -9 167 -9Q121 -9 96 2T58 31T43 72T40 122V479ZM175 563Q161 549 147 544T116 539Q97 539 78 551T44 574L130 689Q143 706 159 720T201 734Q225 734 250 717T294 682L175 563Z"  />
<glyph unicode="&#xEE;" horiz-adv-x="280" d="M40 479Q70 484 86 485T116 486Q140 486 162 482T202 466T229 434T240 381V4Q201 -9 167 -9Q121 -9 96 2T58 31T43 72T40 122V479ZM132 630L83 572Q57 542 14 542Q-4 542 -19 547T-45 561L40 687Q56 710 79 723T134 736Q192 736 222 693L310 561Q282 542 252 542Q231 542 214 549T179 576L132 630Z"  />
<glyph unicode="&#xEF;" horiz-adv-x="280" d="M40 479Q70 484 86 485T116 486Q140 486 162 482T202 466T229 434T240 381V4Q201 -9 167 -9Q121 -9 96 2T58 31T43 72T40 122V479ZM338 629Q338 592 314 571T254 549Q219 549 195 570T170 629Q170 665 194 687T254 709Q289 709 313 687T338 629ZM104 629Q104 592 80 571T20 549Q-15 549 -39 570T-64 629Q-64 665 -40 687T20 709Q55 709 79 687T104 629Z"  />
<glyph unicode="&#xF0;" horiz-adv-x="565" d="M411 747L457 701L387 635Q400 624 414 611Q446 579 472 539Q507 484 523 419T540 288Q540 213 522 156T469 61T386 2T277 -18Q220 -18 174 -3T94 43T43 117T25 218Q25 274 42 315T88 383T154 423T234 436Q269 436 297 428T343 410L349 419Q337 448 317 477Q307 491 296 503T270 527L204 465L158 511L212 561L198 567Q157 583 105 585V599Q105 619 107 640T116 678T137 706T175 717Q220 717 262 704Q281 699 298 691T332 673L411 747ZM341 243Q341 267 339 281T332 309Q318 314 300 314Q285 314 273 310T251 296T236 266T230 217Q230 175 242 152T281 129Q307 129 324 154T341 243Z"  />
<glyph unicode="&#xF1;" horiz-adv-x="555" d="M40 478Q57 482 75 484T118 486Q163 486 191 473T230 436Q242 457 274 476T362 496Q425 496 460 466T507 387Q510 376 511 362T513 333T514 304T515 280V4Q485 -9 441 -9Q395 -9 370 2T332 31T317 72T314 122V294Q314 316 309 329T282 342Q260 342 251 333T241 312V0H40V478ZM358 558Q331 558 311 563T273 576T242 588T212 594Q187 594 170 583T136 551L103 585Q86 602 86 620Q86 642 109 663Q149 700 205 700Q228 700 246 695T279 682T309 670T341 664Q364 664 376 674T407 708L437 670Q454 647 454 629Q454 610 445 597T423 575T392 562T358 558Z"  />
<glyph unicode="&#xF2;" horiz-adv-x="560" d="M535 246Q535 195 521 148T477 64T398 7T279 -15Q210 -15 162 6T84 62T39 144T25 243Q25 295 41 341T89 422T170 476T283 496Q352 496 400 476T478 422T521 343T535 246ZM336 243Q336 288 324 318T281 348Q264 348 253 339T235 315T226 281T223 242Q223 220 225 200T235 165T252 140T280 131Q297 131 308 140T325 165T333 201T336 243ZM133 682Q152 699 177 716T226 734Q252 734 268 720T297 689L383 574Q369 563 350 551T311 539Q294 539 280 544T252 563L133 682Z"  />
<glyph unicode="&#xF3;" horiz-adv-x="560" d="M535 246Q535 195 521 148T477 64T398 7T279 -15Q210 -15 162 6T84 62T39 144T25 243Q25 295 41 341T89 422T170 476T283 496Q352 496 400 476T478 422T521 343T535 246ZM336 243Q336 288 324 318T281 348Q264 348 253 339T235 315T226 281T223 242Q223 220 225 200T235 165T252 140T280 131Q297 131 308 140T325 165T333 201T336 243ZM344 563Q330 549 316 544T285 539Q266 539 247 551T213 574L299 689Q312 706 328 720T370 734Q394 734 419 717T463 682L344 563Z"  />
<glyph unicode="&#xF4;" horiz-adv-x="560" d="M535 246Q535 195 521 148T477 64T398 7T279 -15Q210 -15 162 6T84 62T39 144T25 243Q25 295 41 341T89 422T170 476T283 496Q352 496 400 476T478 422T521 343T535 246ZM336 243Q336 288 324 318T281 348Q264 348 253 339T235 315T226 281T223 242Q223 220 225 200T235 165T252 140T280 131Q297 131 308 140T325 165T333 201T336 243ZM284 630L235 572Q209 542 166 542Q148 542 133 547T107 561L192 687Q208 710 231 723T286 736Q344 736 374 693L462 561Q434 542 404 542Q383 542 366 549T331 576L284 630Z"  />
<glyph unicode="&#xF5;" horiz-adv-x="560" d="M535 246Q535 195 521 148T477 64T398 7T279 -15Q210 -15 162 6T84 62T39 144T25 243Q25 295 41 341T89 422T170 476T283 496Q352 496 400 476T478 422T521 343T535 246ZM336 243Q336 288 324 318T281 348Q264 348 253 339T235 315T226 281T223 242Q223 220 225 200T235 165T252 140T280 131Q297 131 308 140T325 165T333 201T336 243ZM373 558Q346 558 326 563T288 576T257 588T227 594Q202 594 185 583T151 551L118 585Q101 602 101 620Q101 642 124 663Q164 700 220 700Q243 700 261 695T294 682T324 670T356 664Q379 664 391 674T422 708L452 670Q469 647 469 629Q469 610 460 597T438 575T407 562T373 558Z"  />
<glyph unicode="&#xF6;" horiz-adv-x="560" d="M535 246Q535 195 521 148T477 64T398 7T279 -15Q210 -15 162 6T84 62T39 144T25 243Q25 295 41 341T89 422T170 476T283 496Q352 496 400 476T478 422T521 343T535 246ZM336 243Q336 288 324 318T281 348Q264 348 253 339T235 315T226 281T223 242Q223 220 225 200T235 165T252 140T280 131Q297 131 308 140T325 165T333 201T336 243ZM485 629Q485 592 461 571T401 549Q366 549 342 570T317 629Q317 665 341 687T401 709Q436 709 460 687T485 629ZM251 629Q251 592 227 571T167 549Q132 549 108 570T83 629Q83 665 107 687T167 709Q202 709 226 687T251 629Z"  />
<glyph unicode="&#xF7;" horiz-adv-x="600" d="M391 536Q391 499 365 474T300 449Q261 449 235 474T209 536Q209 574 235 598T300 623Q339 623 365 599T391 536ZM53 252V412H547V252H53ZM391 128Q391 90 365 66T300 41Q261 41 235 65T209 128Q209 165 235 190T300 215Q339 215 365 190T391 128Z"  />
<glyph unicode="&#xF8;" horiz-adv-x="560" d="M535 246Q535 195 521 148T477 64T398 7T279 -15Q247 -15 221 -11T171 2L106 -100L50 -68L115 32Q67 68 46 123T25 243Q25 295 41 341T89 422T170 476T283 496Q317 496 346 491T399 476L457 565L512 533L455 444Q497 409 516 358T535 246ZM223 242Q223 232 223 223T225 204L310 337Q299 348 281 348Q264 348 253 339T235 315T226 281T223 242ZM336 258L257 136Q270 131 280 131Q297 131 308 140T325 165T333 201T336 243V258Z"  />
<glyph unicode="&#xF9;" horiz-adv-x="555" d="M515 0H368Q342 0 334 11T325 51Q313 30 281 11T193 -9Q130 -9 95 21T48 100Q45 111 44 125T42 154T41 183T40 207V479Q65 484 84 485T117 486Q141 486 163 482T202 466T230 435T241 383V193Q241 171 247 158T276 145Q298 145 306 154T314 175V479Q339 484 358 485T391 486Q415 486 437 482T477 466T504 434T515 381V0ZM131 682Q150 699 175 716T224 734Q250 734 266 720T295 689L381 574Q367 563 348 551T309 539Q292 539 278 544T250 563L131 682Z"  />
<glyph unicode="&#xFA;" horiz-adv-x="555" d="M515 0H368Q342 0 334 11T325 51Q313 30 281 11T193 -9Q130 -9 95 21T48 100Q45 111 44 125T42 154T41 183T40 207V479Q65 484 84 485T117 486Q141 486 163 482T202 466T230 435T241 383V193Q241 171 247 158T276 145Q298 145 306 154T314 175V479Q339 484 358 485T391 486Q415 486 437 482T477 466T504 434T515 381V0ZM329 563Q315 549 301 544T270 539Q251 539 232 551T198 574L284 689Q297 706 313 720T355 734Q379 734 404 717T448 682L329 563Z"  />
<glyph unicode="&#xFB;" horiz-adv-x="555" d="M515 0H368Q342 0 334 11T325 51Q313 30 281 11T193 -9Q130 -9 95 21T48 100Q45 111 44 125T42 154T41 183T40 207V479Q65 484 84 485T117 486Q141 486 163 482T202 466T230 435T241 383V193Q241 171 247 158T276 145Q298 145 306 154T314 175V479Q339 484 358 485T391 486Q415 486 437 482T477 466T504 434T515 381V0ZM282 630L233 572Q207 542 164 542Q146 542 131 547T105 561L190 687Q206 710 229 723T284 736Q342 736 372 693L460 561Q432 542 402 542Q381 542 364 549T329 576L282 630Z"  />
<glyph unicode="&#xFC;" horiz-adv-x="555" d="M515 0H368Q342 0 334 11T325 51Q313 30 281 11T193 -9Q130 -9 95 21T48 100Q45 111 44 125T42 154T41 183T40 207V479Q65 484 84 485T117 486Q141 486 163 482T202 466T230 435T241 383V193Q241 171 247 158T276 145Q298 145 306 154T314 175V479Q339 484 358 485T391 486Q415 486 437 482T477 466T504 434T515 381V0ZM476 629Q476 592 452 571T392 549Q357 549 333 570T308 629Q308 665 332 687T392 709Q427 709 451 687T476 629ZM242 629Q242 592 218 571T158 549Q123 549 99 570T74 629Q74 665 98 687T158 709Q193 709 217 687T242 629Z"  />
<glyph unicode="&#xFD;" horiz-adv-x="542" d="M410 -13Q407 -23 403 -36T394 -62T383 -89T371 -111Q336 -174 285 -200T162 -227Q111 -227 77 -212T43 -152Q43 -135 51 -112T78 -55Q95 -66 114 -70T147 -75Q183 -75 203 -58T232 8H153L5 469Q27 477 55 481T110 486Q140 486 161 478T196 455T217 423T229 385L273 165H277L321 386Q329 426 356 456T436 486Q489 486 537 467L410 -13ZM341 563Q327 549 313 544T282 539Q263 539 244 551T210 574L296 689Q309 706 325 720T367 734Q391 734 416 717T460 682L341 563Z"  />
<glyph unicode="&#xFE;" horiz-adv-x="566" d="M40 702Q64 707 83 708T116 709Q140 709 162 705T200 689T227 657T237 604V443Q252 463 283 479T359 496Q390 496 422 485T481 446T524 372T541 256Q541 175 524 123T479 41T417 -1T347 -13Q321 -13 301 -8T267 5T246 19Q239 23 238 26V-218H40V702ZM332 257Q332 302 319 327T269 353Q257 353 250 352T240 349V147Q246 143 255 142T273 140Q307 140 319 172T332 257Z"  />
<glyph unicode="&#xFF;" horiz-adv-x="542" d="M410 -13Q407 -23 403 -36T394 -62T383 -89T371 -111Q336 -174 285 -200T162 -227Q111 -227 77 -212T43 -152Q43 -135 51 -112T78 -55Q95 -66 114 -70T147 -75Q183 -75 203 -58T232 8H153L5 469Q27 477 55 481T110 486Q140 486 161 478T196 455T217 423T229 385L273 165H277L321 386Q329 426 356 456T436 486Q489 486 537 467L410 -13ZM476 629Q476 592 452 571T392 549Q357 549 333 570T308 629Q308 665 332 687T392 709Q427 709 451 687T476 629ZM242 629Q242 592 218 571T158 549Q123 549 99 570T74 629Q74 665 98 687T158 709Q193 709 217 687T242 629Z"  />
<glyph unicode="&#x131;" horiz-adv-x="280" d="M40 479Q70 484 86 485T116 486Q140 486 162 482T202 466T229 434T240 381V4Q201 -9 167 -9Q121 -9 96 2T58 31T43 72T40 122V479Z"  />
<glyph unicode="&#x152;" horiz-adv-x="928" d="M792 152Q826 152 848 144T882 121T898 90T903 56Q903 39 903 28T901 0H364Q279 0 217 25T114 96T53 202T33 335Q33 404 54 465T118 571T224 644T371 671H886Q888 651 889 640T890 611Q890 594 885 578T868 548T835 526T782 517H632V416H825V263H632V152H792ZM239 335Q239 296 246 260T270 197T315 154T385 137H430V529H392Q348 529 319 513T272 470T247 408T239 335Z"  />
<glyph unicode="&#x153;" horiz-adv-x="822" d="M634 125Q674 125 701 137T755 169Q768 149 781 123T794 77Q794 60 785 45T753 16Q731 3 696 -6T623 -15Q562 -15 511 4T433 57Q410 28 369 7T261 -15Q197 -15 153 6T80 62T38 144T25 243Q25 295 41 341T88 422T165 476T271 496Q329 496 366 478T433 428Q463 460 503 478T592 496Q648 496 688 478T753 430T790 360T802 276Q802 271 802 263T802 245T801 228T799 216H532Q537 178 560 152T634 125ZM332 246Q332 265 330 283T322 314T306 336T281 345Q266 345 256 337T240 315T231 283T228 246Q228 227 230 208T238 172T254 146T279 136Q295 136 305 146T322 172T330 207T332 246ZM625 299Q625 341 614 356T576 371Q529 371 529 299H625Z"  />
<glyph unicode="&#x160;" horiz-adv-x="538" d="M70 195Q108 169 149 151T239 133Q307 133 307 188Q307 203 299 214T278 235T246 251T206 265Q174 275 142 289T82 326T38 385T21 474Q21 528 42 567T99 633T181 671T278 684Q347 684 395 669T464 640Q484 627 494 613T505 579Q505 559 494 537T456 479Q438 492 417 501T376 518T336 528T303 532Q270 532 252 521T234 490Q234 469 254 457T311 432Q344 421 380 407T445 370T494 312T513 221Q513 161 494 116T439 41T355 -3T248 -18Q176 -18 127 -5T51 26Q33 37 24 53T15 87Q15 111 32 140T70 195ZM280 821L332 868Q344 879 357 883T384 887Q402 887 420 881T445 867L367 760Q350 737 328 728T278 719Q252 719 230 727T192 757L111 867Q119 875 136 881T169 887Q183 887 198 883T228 867L280 821Z"  />
<glyph unicode="&#x161;" horiz-adv-x="451" d="M225 496Q308 496 368 471Q395 460 412 445T430 408Q430 390 419 365T390 317Q360 340 327 354T260 369Q217 369 217 344Q217 328 233 320T273 305T325 292T377 269T417 228T433 160Q433 79 377 32T212 -15Q150 -15 116 -6T61 14Q35 27 25 42T15 75Q15 101 27 126T56 175Q68 164 83 155T117 137T154 125T191 120Q217 120 228 128T239 150Q239 165 223 174T182 190T129 206T76 230T36 271T19 338Q19 378 36 408T81 457T147 486T225 496ZM283 698Q300 717 317 724T356 732Q386 732 414 713L326 581Q296 538 238 538Q207 538 184 551T144 587L59 713Q69 721 84 726T118 732Q161 732 187 702L236 644L283 698Z"  />
<glyph unicode="&#x178;" horiz-adv-x="629" d="M414 231V0H212V226L0 643Q26 657 61 666T124 676Q172 676 197 658T237 605L315 418L392 607Q405 638 430 657T505 676Q531 676 564 669T629 651L414 231ZM513 805Q513 768 489 747T429 725Q394 725 370 746T345 805Q345 841 369 863T429 885Q464 885 488 863T513 805ZM289 805Q289 768 265 747T205 725Q170 725 146 746T121 805Q121 841 145 863T205 885Q240 885 264 863T289 805Z"  />
<glyph unicode="&#x17D;" horiz-adv-x="598" d="M28 0V132L313 517H27Q26 534 26 547T25 578Q25 594 30 611T48 641T82 662T136 671H484Q521 671 535 658T549 616V537L263 152H461Q495 152 517 144T551 122T568 91T573 58Q573 41 573 29T571 0H28ZM308 821L360 868Q372 879 385 883T412 887Q430 887 448 881T473 867L395 760Q378 737 356 728T306 719Q280 719 258 727T220 757L139 867Q147 875 164 881T197 887Q211 887 226 883T256 867L308 821Z"  />
<glyph unicode="&#x17E;" horiz-adv-x="493" d="M23 0V130L217 332H29Q27 349 27 361T26 391Q26 418 36 436T64 464T102 479T147 483H386Q424 483 444 468T465 413V368L258 153H350Q376 153 398 150T437 136T463 107T472 58Q472 41 472 29T469 0H23ZM308 698Q325 717 342 724T381 732Q411 732 439 713L351 581Q321 538 263 538Q232 538 209 551T169 587L84 713Q94 721 109 726T143 732Q186 732 212 702L261 644L308 698Z"  />
<glyph unicode="&#x192;" horiz-adv-x="590" d="M363 306L309 66Q297 13 272 -24T214 -86T141 -122T63 -134Q8 -134 -10 -116T-28 -67Q-28 -50 -24 -30T-10 20H5Q53 20 80 40T118 109L161 306H84V454H195Q203 488 214 518T246 579Q267 612 293 633T349 667T409 685T470 691Q521 691 539 674T557 624Q557 610 554 589T541 540Q531 542 520 542T500 542Q455 542 432 522T397 454H525V306H363Z"  />
<glyph unicode="&#x2C6;" horiz-adv-x="500" d="M250 630L201 572Q175 542 132 542Q114 542 99 547T73 561L158 687Q174 710 197 723T252 736Q310 736 340 693L428 561Q400 542 370 542Q349 542 332 549T297 576L250 630Z"  />
<glyph unicode="&#x2C7;" horiz-adv-x="500" d="M297 698Q314 717 331 724T370 732Q400 732 428 713L340 581Q310 538 252 538Q221 538 198 551T158 587L73 713Q83 721 98 726T132 732Q175 732 201 702L250 644L297 698Z"  />
<glyph unicode="&#x2DA;" horiz-adv-x="500" d="M363 665Q363 640 355 618T331 580T294 553T245 543Q217 543 195 552T158 578T134 617T126 664Q126 689 134 711T157 750T195 777T245 787Q272 787 294 777T331 751T354 712T363 665ZM293 664Q293 687 281 704T245 721Q222 721 209 705T196 665Q196 642 209 625T245 608Q268 608 280 625T293 664Z"  />
<glyph unicode="&#x2DC;" horiz-adv-x="500" d="M333 558Q306 558 286 563T248 576T217 588T187 594Q162 594 145 583T111 551L78 585Q61 602 61 620Q61 642 84 663Q124 700 180 700Q203 700 221 695T254 682T284 670T316 664Q339 664 351 674T382 708L412 670Q429 647 429 629Q429 610 420 597T398 575T367 562T333 558Z"  />
<glyph unicode="&#x3BC;" horiz-adv-x="600" d="M384 46Q375 28 357 10T303 -9Q283 -9 265 -4T236 14V-218H51V479Q76 484 95 485T128 486Q152 486 174 482T213 466T241 435T252 383V212Q252 190 254 177T262 156T274 146T291 143Q317 143 323 156T330 206V479Q355 484 374 485T407 486Q431 486 453 482T492 466T520 435T531 383V198Q531 169 533 151T544 122T566 106T605 100V10Q583 0 549 -5T483 -10Q439 -10 417 6T384 46Z"  />
<glyph unicode="&#x2013;" horiz-adv-x="500" d="M106 217Q58 217 34 241T10 303Q10 335 13 367H385Q429 367 459 348T490 281Q490 265 490 249T488 217H106Z"  />
<glyph unicode="&#x2014;" horiz-adv-x="1000" d="M108 217Q60 217 35 241T10 303Q10 335 13 367H884Q906 367 925 363T958 348T981 322T990 281Q990 248 987 217H108Z"  />
<glyph unicode="&#x2018;" horiz-adv-x="275" d="M40 510Q40 552 52 590T92 659Q111 681 134 695T179 709Q201 709 217 697T240 664Q229 659 217 653T195 637T178 616T171 589Q171 572 179 562T197 541T215 516T224 479Q224 465 219 451T203 424T175 405T135 397Q110 397 92 407T63 432T46 468T40 510Z"  />
<glyph unicode="&#x2019;" horiz-adv-x="275" d="M235 596Q235 554 223 516T183 447Q164 425 141 411T96 397Q74 397 58 409T35 442Q46 446 58 453T80 469T97 490T104 517Q104 533 96 544T78 565T60 590T51 627Q51 640 56 654T72 681T100 701T140 709Q165 709 183 699T212 674T229 638T235 596Z"  />
<glyph unicode="&#x201A;" horiz-adv-x="285" d="M230 57Q230 15 218 -23T178 -92Q159 -114 136 -128T91 -142Q69 -142 53 -130T30 -97Q41 -93 53 -86T75 -70T92 -49T99 -22Q99 -6 91 5T73 26T55 51T46 88Q46 101 51 115T67 142T95 162T135 170Q160 170 178 160T207 135T224 99T230 57Z"  />
<glyph unicode="&#x201C;" horiz-adv-x="519" d="M284 510Q284 552 296 590T336 659Q355 681 378 695T423 709Q445 709 461 697T484 664Q473 659 461 653T439 637T422 616T415 589Q415 572 423 562T441 541T459 516T468 479Q468 465 463 451T447 424T419 405T379 397Q354 397 336 407T307 432T290 468T284 510ZM40 510Q40 552 52 590T92 659Q111 681 134 695T179 709Q201 709 217 697T240 664Q229 659 217 653T195 637T178 616T171 589Q171 572 179 562T197 541T215 516T224 479Q224 465 219 451T203 424T175 405T135 397Q110 397 92 407T63 432T46 468T40 510Z"  />
<glyph unicode="&#x201D;" horiz-adv-x="519" d="M479 596Q479 554 467 516T427 447Q408 425 385 411T340 397Q318 397 302 409T279 442Q290 446 302 453T324 469T341 490T348 517Q348 533 340 544T322 565T304 590T295 627Q295 640 300 654T316 681T344 701T384 709Q409 709 427 699T456 674T473 638T479 596ZM235 596Q235 554 223 516T183 447Q164 425 141 411T96 397Q74 397 58 409T35 442Q46 446 58 453T80 469T97 490T104 517Q104 533 96 544T78 565T60 590T51 627Q51 640 56 654T72 681T100 701T140 709Q165 709 183 699T212 674T229 638T235 596Z"  />
<glyph unicode="&#x201E;" horiz-adv-x="529" d="M474 57Q474 15 462 -23T422 -92Q403 -114 380 -128T335 -142Q313 -142 297 -130T274 -97Q285 -93 297 -86T319 -70T336 -49T343 -22Q343 -6 335 5T317 26T299 51T290 88Q290 101 295 115T311 142T339 162T379 170Q404 170 422 160T451 135T468 99T474 57ZM230 57Q230 15 218 -23T178 -92Q159 -114 136 -128T91 -142Q69 -142 53 -130T30 -97Q41 -93 53 -86T75 -70T92 -49T99 -22Q99 -6 91 5T73 26T55 51T46 88Q46 101 51 115T67 142T95 162T135 170Q160 170 178 160T207 135T224 99T230 57Z"  />
<glyph unicode="&#x2020;" horiz-adv-x="464" d="M303 -118H157V363H91Q65 363 51 370T30 389T22 413T20 436Q20 448 22 467T27 500H158V671Q177 673 192 674T212 675Q228 675 244 672T274 660T295 633T303 588V500H376Q399 500 413 494T436 477T446 455T449 430Q449 413 447 395T441 363H303V-118Z"  />
<glyph unicode="&#x2021;" horiz-adv-x="484" d="M313 -118H167V36H101Q75 36 61 43T40 62T32 86T30 109Q30 121 32 140T37 173H167V380H101Q75 380 61 387T40 406T32 430T30 453Q30 465 32 484T37 517H168V671Q187 673 202 674T222 675Q238 675 254 672T284 660T305 633T313 588V517H386Q409 517 423 511T446 494T456 472T459 447Q459 430 457 412T451 380H313V173H386Q409 173 423 167T446 150T456 128T459 103Q459 86 457 68T451 36H313V-118Z"  />
<glyph unicode="&#x2022;" horiz-adv-x="387" d="M337 350Q337 321 327 295T297 250T251 219T193 207Q161 207 135 218T89 249T60 295T50 350Q50 380 60 406T89 451T134 482T193 494Q225 494 251 483T297 452T326 406T337 350Z"  />
<glyph unicode="&#x2026;" horiz-adv-x="778" d="M484 79Q484 37 459 11T389 -15Q344 -15 319 11T294 79Q294 121 320 146T389 171Q431 171 457 146T484 79ZM743 79Q743 37 718 11T648 -15Q603 -15 578 11T553 79Q553 121 579 146T648 171Q690 171 716 146T743 79ZM227 79Q227 37 202 11T132 -15Q87 -15 62 11T37 79Q37 121 63 146T132 171Q174 171 200 146T227 79Z"  />
<glyph unicode="&#x2030;" horiz-adv-x="1192" d="M361 508Q361 423 314 376T189 329Q108 329 63 376T17 508Q17 550 30 583T66 638T120 672T189 684Q268 684 314 639T361 508ZM226 509Q226 544 219 563T189 583Q167 583 160 564T153 508Q153 471 160 450T189 428Q212 428 219 449T226 509ZM792 160Q792 75 745 28T620 -19Q539 -19 494 28T448 160Q448 202 461 235T497 290T551 324T620 336Q699 336 745 291T792 160ZM657 161Q657 196 650 215T620 235Q598 235 591 216T584 160Q584 123 591 102T620 80Q643 80 650 101T657 161ZM1167 161Q1167 76 1120 29T995 -18Q914 -18 869 29T823 161Q823 203 836 236T872 291T926 325T995 337Q1074 337 1120 292T1167 161ZM1032 162Q1032 197 1025 216T995 236Q973 236 966 217T959 161Q959 124 966 103T995 81Q1018 81 1025 102T1032 162ZM299 0H150L474 600Q484 619 493 634T516 661T547 679T594 685Q613 685 630 683T661 673L299 0Z"  />
<glyph unicode="&#x2039;" horiz-adv-x="319" d="M207 282L255 217Q267 200 273 184T279 148Q279 125 270 103T237 53L75 192Q30 231 30 282Q30 308 43 330T76 371L225 506Q253 475 264 454T275 409Q275 394 270 377T250 341L207 282Z"  />
<glyph unicode="&#x203A;" horiz-adv-x="319" d="M69 341Q55 360 50 377T44 409Q44 432 55 453T94 506L243 371Q263 353 276 331T289 282Q289 231 244 192L82 53Q59 81 50 103T40 148Q40 167 46 183T64 217L112 282L69 341Z"  />
<glyph unicode="&#x2044;" horiz-adv-x="89" d="M-77 0H-221L103 600Q113 619 122 634T145 661T176 679T223 685Q239 685 255 683T285 673L-77 0Z"  />
<glyph unicode="&#x2074;" horiz-adv-x="390" d="M28 362V443L166 651Q178 669 196 680T248 691Q272 691 292 685T321 673V448H340Q360 448 368 439T376 413Q376 404 375 391T371 362H321V289H187V362H28ZM187 448V557H183L113 448H187Z"  />
<glyph unicode="&#x20AC;" horiz-adv-x="590" d="M557 31Q551 25 539 17T507 1T459 -12T394 -18Q329 -18 279 0T194 51T136 130T105 232H45V289H99Q98 298 98 307V353H45V410H105Q115 469 139 517T200 599T285 652T391 671Q425 671 452 666T501 652T538 634T564 616Q577 605 586 590T596 556Q596 536 579 510T536 455Q505 483 478 499T410 515Q359 515 333 487T297 410H464V353H290V311Q290 300 291 289H464V232H301Q312 187 338 162T412 136Q449 136 474 148T529 189Q536 180 545 168T562 142T576 114T582 86Q582 56 557 31Z"  />
<glyph unicode="&#x2122;" horiz-adv-x="822" d="M447 671Q476 671 493 659T517 627L579 444L640 625Q649 651 670 661T711 671Q730 671 747 668T773 661L792 297H680L672 472L625 343H527L482 468L473 297H360L385 661Q393 665 412 668T447 671ZM334 666Q337 654 338 642T339 624Q339 614 336 604T326 585T304 571T267 565H234V297H113V565H15Q12 579 11 592T10 611Q10 621 12 631T22 649T44 661T82 666H334Z"  />

</font>
</defs>
</svg>
